<?xml version="1.0" encoding="UTF-8"?>
<svg xmlns="http://www.w3.org/2000/svg" xmlns:xlink="http://www.w3.org/1999/xlink" width="800" height="800" viewBox="173 372 254 254">
<path fill-rule="evenodd" fill="rgb(34.075928%, 34.535217%, 35.319519%)" fill-opacity="1" stroke-width="0.5669" stroke-linecap="butt" stroke-linejoin="miter" stroke="rgb(34.075928%, 34.535217%, 35.319519%)" stroke-opacity="1" stroke-miterlimit="22.925586" d="M 299.950508 461.716353 C 365.581059 461.716353 418.786352 408.511061 418.786352 342.884421 C 418.786352 277.25387 365.581059 224.048577 299.950508 224.048577 C 234.319957 224.048577 181.118576 277.25387 181.118576 342.884421 C 181.118576 408.511061 234.319957 461.716353 299.950508 461.716353 Z M 299.950508 461.716353 " transform="matrix(0.998785, 0, 0, -0.998785, 0, 841.323135)"/>
<path fill-rule="evenodd" fill="rgb(100%, 100%, 100%)" fill-opacity="1" d="M 299.585938 385.832031 C 362.007812 385.832031 412.613281 436.433594 412.613281 498.855469 C 412.613281 561.28125 362.007812 611.882812 299.585938 611.882812 C 237.164062 611.882812 186.558594 561.28125 186.558594 498.855469 C 186.558594 436.433594 237.164062 385.832031 299.585938 385.832031 "/>
<path fill-rule="evenodd" fill="rgb(13.729858%, 12.159729%, 12.548828%)" fill-opacity="1" stroke-width="0.5669" stroke-linecap="butt" stroke-linejoin="miter" stroke="rgb(13.729858%, 12.159729%, 12.548828%)" stroke-opacity="1" stroke-miterlimit="22.925586" d="M 299.950508 450.092851 C 359.319542 450.092851 407.444441 401.967952 407.444441 342.598917 C 407.444441 283.229883 359.319542 235.104984 299.950508 235.104984 C 240.581474 235.104984 192.456575 283.229883 192.456575 342.598917 C 192.456575 401.967952 240.581474 450.092851 299.950508 450.092851 Z M 299.950508 450.092851 " transform="matrix(0.998785, 0, 0, -0.998785, 0, 841.323135)"/>
<path fill-rule="nonzero" fill="rgb(100%, 100%, 100%)" fill-opacity="1" d="M 262.125 573.503906 L 261.476562 575.386719 C 262.578125 575.097656 263.375 574.929688 263.878906 574.878906 C 264.375 574.828125 264.816406 574.898438 265.191406 575.09375 C 265.566406 575.289062 265.789062 575.539062 265.875 575.847656 C 265.957031 576.15625 265.917969 576.453125 265.769531 576.746094 C 265.589844 577.085938 265.339844 577.328125 265.011719 577.457031 C 264.683594 577.585938 264.394531 577.589844 264.144531 577.460938 C 263.992188 577.378906 263.871094 577.269531 263.773438 577.132812 C 263.386719 576.527344 263.03125 576.136719 262.707031 575.96875 C 262.40625 575.8125 262.035156 575.851562 261.59375 576.089844 C 261.152344 576.324219 260.730469 576.824219 260.332031 577.589844 L 257.6875 582.691406 C 257.53125 582.992188 257.433594 583.222656 257.394531 583.390625 C 257.359375 583.554688 257.382812 583.707031 257.46875 583.851562 C 257.5625 583.996094 257.703125 584.140625 257.902344 584.28125 C 258.101562 584.421875 258.484375 584.660156 259.042969 585.003906 L 258.714844 585.632812 L 253.113281 582.726562 L 253.4375 582.097656 C 254.011719 582.328125 254.410156 582.472656 254.636719 582.523438 C 254.859375 582.570312 255.039062 582.542969 255.171875 582.425781 C 255.308594 582.3125 255.476562 582.054688 255.6875 581.652344 L 259.25 574.785156 C 259.449219 574.398438 259.539062 574.132812 259.515625 573.976562 C 259.5 573.820312 259.355469 573.648438 259.085938 573.453125 L 258.335938 572.914062 L 258.617188 572.371094 Z M 271.679688 577.679688 C 272.574219 578.023438 273.308594 578.460938 273.882812 578.976562 C 274.464844 579.496094 274.875 580.09375 275.125 580.773438 C 275.371094 581.453125 275.460938 582.203125 275.398438 583.011719 C 275.335938 583.824219 275.121094 584.695312 274.757812 585.636719 C 274.277344 586.871094 273.671875 587.851562 272.9375 588.585938 C 272.195312 589.324219 271.34375 589.765625 270.367188 589.917969 C 269.390625 590.070312 268.304688 589.917969 267.113281 589.457031 C 265.359375 588.777344 264.226562 587.75 263.71875 586.371094 C 263.210938 584.996094 263.320312 583.371094 264.050781 581.488281 C 264.777344 579.609375 265.789062 578.335938 267.089844 577.660156 C 268.386719 576.988281 269.917969 576.996094 271.679688 577.679688 Z M 266.375 582.386719 C 265.964844 583.449219 265.722656 584.40625 265.644531 585.253906 C 265.570312 586.105469 265.683594 586.820312 265.980469 587.402344 C 266.28125 587.980469 266.761719 588.398438 267.425781 588.65625 C 268.097656 588.917969 268.742188 588.9375 269.347656 588.710938 C 269.953125 588.488281 270.515625 588.035156 271.035156 587.355469 C 271.550781 586.679688 272.015625 585.804688 272.433594 584.734375 C 272.839844 583.683594 273.078125 582.734375 273.160156 581.875 C 273.234375 581.023438 273.125 580.308594 272.828125 579.734375 C 272.53125 579.160156 272.042969 578.742188 271.367188 578.480469 C 270.707031 578.222656 270.070312 578.207031 269.457031 578.433594 C 268.847656 578.664062 268.28125 579.113281 267.765625 579.785156 C 267.25 580.464844 266.785156 581.328125 266.375 582.386719 Z M 283.847656 582.4375 L 280.832031 581.75 L 279.136719 589.175781 C 278.945312 590.011719 278.949219 590.652344 279.148438 591.101562 C 279.351562 591.546875 279.679688 591.820312 280.132812 591.925781 C 280.757812 592.070312 281.328125 592.089844 281.855469 591.988281 L 281.921875 592.53125 C 280.65625 592.988281 279.582031 593.113281 278.695312 592.910156 C 278.066406 592.765625 277.515625 592.441406 277.058594 591.9375 C 276.59375 591.433594 276.488281 590.648438 276.730469 589.582031 L 278.636719 581.246094 L 276.945312 580.859375 L 277.164062 579.902344 L 278.949219 580.308594 L 281.070312 577.613281 L 281.742188 577.769531 L 281.050781 580.789062 L 284.066406 581.480469 Z M 284.683594 581.988281 L 288.492188 582.023438 L 288.640625 582.195312 L 286.933594 592.105469 C 286.878906 592.433594 286.851562 592.679688 286.855469 592.851562 C 286.859375 593.019531 286.902344 593.15625 287 593.265625 C 287.089844 593.367188 287.230469 593.457031 287.417969 593.519531 C 287.605469 593.585938 287.949219 593.683594 288.457031 593.820312 L 288.335938 594.519531 L 282.578125 593.527344 L 282.699219 592.828125 C 283.222656 592.878906 283.582031 592.90625 283.78125 592.90625 C 283.976562 592.90625 284.140625 592.871094 284.265625 592.800781 C 284.394531 592.730469 284.480469 592.625 284.535156 592.480469 C 284.589844 592.339844 284.644531 592.085938 284.707031 591.722656 L 286.019531 584.097656 C 286.09375 583.667969 286.097656 583.386719 286.03125 583.246094 C 285.964844 583.101562 285.773438 582.984375 285.460938 582.878906 L 284.582031 582.59375 Z M 288.378906 577.316406 L 288.355469 577.3125 C 288.746094 577.378906 289.035156 577.558594 289.222656 577.851562 C 289.414062 578.144531 289.472656 578.480469 289.40625 578.871094 C 289.339844 579.242188 289.175781 579.527344 288.910156 579.726562 C 288.636719 579.929688 288.3125 580 287.929688 579.933594 C 287.550781 579.867188 287.265625 579.695312 287.070312 579.410156 C 286.878906 579.132812 286.8125 578.804688 286.878906 578.433594 C 286.945312 578.042969 287.117188 577.742188 287.394531 577.53125 C 287.671875 577.324219 288 577.253906 288.378906 577.316406 Z M 297.957031 586.65625 L 297.257812 586.601562 C 297.230469 585.769531 297.015625 585.070312 296.601562 584.503906 C 296.191406 583.933594 295.585938 583.621094 294.792969 583.558594 C 294.175781 583.511719 293.652344 583.648438 293.222656 583.96875 C 292.792969 584.289062 292.546875 584.757812 292.492188 585.375 C 292.449219 585.96875 292.644531 586.4375 293.082031 586.777344 C 293.519531 587.113281 294.117188 587.449219 294.886719 587.78125 C 296.148438 588.277344 297.058594 588.839844 297.621094 589.46875 C 298.175781 590.097656 298.417969 590.933594 298.339844 591.980469 C 298.285156 592.679688 298.0625 593.292969 297.667969 593.8125 C 297.269531 594.339844 296.722656 594.734375 296.027344 594.992188 C 295.328125 595.25 294.515625 595.34375 293.589844 595.273438 C 292.839844 595.21875 292.148438 595.066406 291.507812 594.816406 C 290.871094 594.566406 290.351562 594.230469 289.953125 593.8125 L 289.949219 590.582031 L 290.652344 590.636719 C 291.019531 593.035156 292.09375 594.300781 293.878906 594.433594 C 294.304688 594.46875 294.691406 594.410156 295.039062 594.269531 C 295.386719 594.125 295.667969 593.910156 295.882812 593.617188 C 296.097656 593.324219 296.21875 592.976562 296.25 592.570312 C 296.304688 591.832031 296.105469 591.261719 295.648438 590.851562 C 295.191406 590.4375 294.59375 590.089844 293.863281 589.800781 C 292.742188 589.351562 291.886719 588.835938 291.300781 588.246094 C 290.722656 587.65625 290.460938 586.898438 290.523438 585.972656 C 290.621094 584.832031 291.085938 583.980469 291.917969 583.417969 C 292.75 582.855469 293.824219 582.625 295.144531 582.722656 C 295.722656 582.769531 296.285156 582.878906 296.820312 583.054688 C 297.355469 583.230469 297.804688 583.476562 298.175781 583.792969 Z M 307.746094 586.277344 L 307.042969 586.289062 C 306.9375 585.464844 306.660156 584.789062 306.191406 584.261719 C 305.730469 583.734375 305.097656 583.480469 304.304688 583.496094 C 303.683594 583.507812 303.175781 583.691406 302.777344 584.050781 C 302.378906 584.410156 302.179688 584.898438 302.183594 585.519531 C 302.195312 586.117188 302.4375 586.5625 302.902344 586.859375 C 303.371094 587.15625 304 587.429688 304.796875 587.6875 C 306.097656 588.0625 307.058594 588.535156 307.675781 589.109375 C 308.289062 589.683594 308.609375 590.492188 308.628906 591.539062 C 308.644531 592.242188 308.480469 592.875 308.132812 593.429688 C 307.789062 593.992188 307.28125 594.433594 306.613281 594.757812 C 305.945312 595.082031 305.144531 595.253906 304.214844 595.269531 C 303.460938 595.285156 302.761719 595.199219 302.097656 595.011719 C 301.4375 594.824219 300.890625 594.539062 300.457031 594.160156 L 300.148438 590.945312 L 300.851562 590.929688 C 301.441406 593.285156 302.628906 594.441406 304.421875 594.40625 C 304.847656 594.398438 305.230469 594.304688 305.5625 594.132812 C 305.894531 593.957031 306.152344 593.714844 306.339844 593.402344 C 306.523438 593.09375 306.613281 592.734375 306.605469 592.324219 C 306.59375 591.585938 306.335938 591.039062 305.84375 590.671875 C 305.347656 590.304688 304.722656 590.011719 303.96875 589.792969 C 302.808594 589.457031 301.90625 589.023438 301.269531 588.488281 C 300.636719 587.957031 300.308594 587.230469 300.28125 586.300781 C 300.269531 585.15625 300.648438 584.265625 301.425781 583.628906 C 302.199219 582.984375 303.25 582.65625 304.570312 582.628906 C 305.152344 582.617188 305.722656 582.675781 306.273438 582.800781 C 306.824219 582.925781 307.292969 583.125 307.691406 583.40625 Z M 318.878906 586.910156 L 312.074219 588.082031 C 312.242188 589.054688 312.484375 589.921875 312.808594 590.683594 C 313.128906 591.441406 313.59375 592.039062 314.199219 592.472656 C 314.804688 592.902344 315.5625 593.042969 316.472656 592.886719 C 317.328125 592.738281 317.980469 592.398438 318.429688 591.859375 C 318.878906 591.320312 319.226562 590.617188 319.460938 589.738281 L 320.242188 590.007812 C 320.140625 590.707031 319.9375 591.347656 319.628906 591.929688 C 319.320312 592.511719 318.890625 593 318.324219 593.398438 C 317.765625 593.796875 317.0625 594.074219 316.21875 594.226562 C 312.585938 594.851562 310.414062 593.117188 309.710938 589.027344 C 309.5 587.804688 309.511719 586.683594 309.746094 585.664062 C 309.984375 584.636719 310.464844 583.785156 311.191406 583.109375 C 311.914062 582.425781 312.871094 581.984375 314.050781 581.78125 C 315.359375 581.554688 316.417969 581.660156 317.222656 582.097656 C 318.03125 582.535156 318.609375 583.09375 318.964844 583.777344 C 319.3125 584.457031 319.546875 585.140625 319.664062 585.828125 C 319.730469 586.195312 319.6875 586.453125 319.539062 586.605469 C 319.390625 586.757812 319.171875 586.859375 318.878906 586.910156 Z M 311.941406 587.15625 L 316.402344 586.386719 C 316.714844 586.335938 316.917969 586.230469 317.007812 586.078125 C 317.09375 585.925781 317.117188 585.722656 317.074219 585.46875 C 316.9375 584.6875 316.644531 583.980469 316.1875 583.351562 C 315.730469 582.71875 315.019531 582.488281 314.058594 582.652344 C 313.324219 582.777344 312.785156 583.121094 312.453125 583.675781 C 312.113281 584.234375 311.925781 584.828125 311.878906 585.464844 C 311.835938 586.09375 311.855469 586.660156 311.941406 587.15625 Z M 322.589844 579.808594 L 323.414062 581.621094 C 324.015625 580.65625 324.476562 579.984375 324.808594 579.597656 C 325.132812 579.21875 325.503906 578.96875 325.90625 578.851562 C 326.3125 578.734375 326.648438 578.761719 326.921875 578.925781 C 327.195312 579.09375 327.371094 579.339844 327.460938 579.652344 C 327.570312 580.023438 327.550781 580.371094 327.402344 580.6875 C 327.253906 581.007812 327.046875 581.210938 326.777344 581.289062 C 326.613281 581.335938 326.449219 581.339844 326.285156 581.304688 C 325.585938 581.132812 325.058594 581.09375 324.707031 581.199219 C 324.382812 581.289062 324.140625 581.574219 323.984375 582.050781 C 323.824219 582.523438 323.863281 583.175781 324.101562 584.007812 L 325.691406 589.527344 C 325.785156 589.855469 325.875 590.089844 325.960938 590.234375 C 326.046875 590.378906 326.171875 590.472656 326.335938 590.519531 C 326.5 590.5625 326.703125 590.566406 326.941406 590.535156 C 327.183594 590.496094 327.625 590.410156 328.265625 590.273438 L 328.464844 590.957031 L 322.398438 592.703125 L 322.203125 592.019531 C 322.777344 591.796875 323.164062 591.625 323.363281 591.507812 C 323.558594 591.386719 323.667969 591.242188 323.683594 591.066406 C 323.703125 590.890625 323.648438 590.585938 323.527344 590.152344 L 321.386719 582.714844 C 321.265625 582.300781 321.144531 582.042969 321.023438 581.945312 C 320.902344 581.84375 320.679688 581.820312 320.347656 581.863281 L 319.433594 581.992188 L 319.265625 581.398438 Z M 327.015625 579.304688 L 330.277344 577.339844 L 330.492188 577.40625 L 334.242188 586.738281 C 334.367188 587.046875 334.472656 587.269531 334.566406 587.410156 C 334.65625 587.554688 334.769531 587.648438 334.90625 587.691406 C 335.039062 587.730469 335.203125 587.730469 335.394531 587.6875 C 335.589844 587.644531 335.933594 587.546875 336.4375 587.398438 L 336.699219 588.054688 L 331.28125 590.234375 L 331.015625 589.574219 C 331.488281 589.339844 331.808594 589.175781 331.976562 589.074219 C 332.144531 588.972656 332.265625 588.855469 332.332031 588.726562 C 332.40625 588.601562 332.425781 588.464844 332.394531 588.3125 C 332.367188 588.167969 332.28125 587.921875 332.144531 587.582031 L 329.261719 580.402344 C 329.097656 579.996094 328.953125 579.757812 328.824219 579.671875 C 328.691406 579.582031 328.464844 579.582031 328.144531 579.65625 L 327.246094 579.875 Z M 327.710938 573.390625 L 327.6875 573.398438 C 328.054688 573.253906 328.394531 573.253906 328.710938 573.402344 C 329.023438 573.550781 329.25 573.808594 329.398438 574.175781 C 329.539062 574.523438 329.546875 574.855469 329.425781 575.164062 C 329.300781 575.480469 329.058594 575.710938 328.699219 575.855469 C 328.34375 575.996094 328.007812 576 327.695312 575.859375 C 327.386719 575.722656 327.160156 575.480469 327.019531 575.128906 C 326.871094 574.761719 326.859375 574.414062 326.984375 574.089844 C 327.113281 573.769531 327.355469 573.535156 327.710938 573.390625 Z M 343.722656 577.488281 L 337.609375 580.695312 C 338.070312 581.570312 338.566406 582.320312 339.105469 582.945312 C 339.644531 583.566406 340.269531 583.996094 340.980469 584.21875 C 341.6875 584.445312 342.453125 584.34375 343.273438 583.914062 C 344.039062 583.511719 344.554688 582.984375 344.816406 582.335938 C 345.082031 581.683594 345.191406 580.90625 345.144531 580.003906 L 345.976562 580.015625 C 346.09375 580.714844 346.097656 581.386719 345.980469 582.035156 C 345.867188 582.683594 345.609375 583.28125 345.191406 583.832031 C 344.78125 584.382812 344.199219 584.863281 343.441406 585.269531 C 340.175781 586.980469 337.578125 586 335.648438 582.324219 C 335.074219 581.226562 334.742188 580.15625 334.648438 579.109375 C 334.558594 578.0625 334.753906 577.101562 335.238281 576.234375 C 335.714844 575.363281 336.492188 574.648438 337.550781 574.089844 C 338.726562 573.476562 339.765625 573.25 340.667969 573.417969 C 341.570312 573.582031 342.296875 573.9375 342.839844 574.480469 C 343.382812 575.019531 343.816406 575.597656 344.136719 576.214844 C 344.3125 576.546875 344.351562 576.804688 344.257812 576.992188 C 344.164062 577.1875 343.984375 577.351562 343.722656 577.488281 Z M 337.199219 579.855469 L 341.207031 577.753906 C 341.488281 577.605469 341.648438 577.441406 341.6875 577.269531 C 341.722656 577.097656 341.679688 576.898438 341.5625 576.671875 C 341.195312 575.96875 340.695312 575.390625 340.066406 574.929688 C 339.4375 574.46875 338.691406 574.464844 337.828125 574.917969 C 337.167969 575.265625 336.761719 575.753906 336.613281 576.386719 C 336.464844 577.023438 336.464844 577.644531 336.617188 578.261719 C 336.769531 578.878906 336.964844 579.410156 337.199219 579.855469 "/>
<path fill-rule="nonzero" fill="rgb(98.475647%, 76.797485%, 3.045654%)" fill-opacity="1" d="M 219.152344 527.980469 L 233.8125 527.980469 L 233.8125 532.445312 L 224.695312 532.445312 L 224.695312 537.53125 L 231.667969 537.53125 L 231.667969 542 L 224.695312 542 L 224.695312 552.214844 L 219.152344 552.214844 Z M 238.816406 527.980469 L 246.421875 527.980469 C 253.484375 527.980469 257.015625 530.378906 257.015625 535.175781 C 257.015625 538.433594 255.332031 540.648438 251.96875 541.8125 L 258.667969 552.214844 L 252.507812 552.214844 L 246.359375 542.742188 C 245.773438 542.765625 245.132812 542.777344 244.441406 542.777344 L 244.441406 552.214844 L 238.816406 552.214844 Z M 244.441406 538.277344 L 247.535156 538.277344 C 248.535156 538.277344 249.410156 538.042969 250.175781 537.566406 C 251.09375 536.996094 251.554688 536.195312 251.554688 535.175781 C 251.554688 533.382812 250.148438 532.488281 247.34375 532.488281 L 244.441406 532.488281 Z M 271.722656 527.980469 L 277.417969 527.980469 L 288.78125 552.214844 L 282.9375 552.214844 L 280.628906 546.714844 L 268.574219 546.714844 L 266.175781 552.214844 L 260.324219 552.214844 Z M 274.589844 533.734375 L 270.683594 542.039062 L 278.484375 542.039062 Z M 293.160156 527.980469 L 298.535156 527.980469 L 311.234375 543.921875 L 311.234375 527.980469 L 316.855469 527.980469 L 316.855469 552.214844 L 311.4375 552.214844 L 298.785156 536.320312 L 298.785156 552.214844 L 293.160156 552.214844 Z M 345.515625 539.222656 L 350.191406 539.222656 L 350.191406 539.269531 L 350.265625 539.269531 L 350.292969 540.289062 C 350.328125 541.289062 350.292969 542.175781 350.191406 542.96875 L 350.191406 552.503906 L 345.515625 552.503906 L 345.515625 551.015625 C 343.464844 552.226562 341.003906 552.835938 338.121094 552.835938 C 332.371094 552.835938 328.167969 550.730469 325.527344 546.519531 C 324.238281 544.472656 323.597656 542.292969 323.597656 539.972656 C 323.597656 536.761719 324.769531 533.96875 327.121094 531.597656 C 329.914062 528.769531 333.53125 527.359375 337.976562 527.359375 C 342.574219 527.359375 346.433594 528.882812 349.535156 531.929688 L 345.953125 535.152344 C 343.675781 532.960938 341.03125 531.867188 338.011719 531.867188 C 335.613281 531.867188 333.515625 532.542969 331.738281 533.894531 C 329.734375 535.421875 328.726562 537.464844 328.726562 540.011719 C 328.726562 542.507812 329.710938 544.582031 331.691406 546.230469 C 333.601562 547.824219 335.8125 548.554688 338.328125 548.410156 C 340.609375 548.285156 342.234375 547.800781 343.214844 546.949219 C 343.730469 546.5 344.449219 545.382812 345.371094 543.613281 L 336.128906 543.613281 L 336.128906 539.269531 L 345.515625 539.269531 Z M 371.234375 527.359375 C 374.867188 527.359375 378.023438 528.46875 380.707031 530.6875 C 383.648438 533.128906 385.117188 536.292969 385.117188 540.171875 C 385.117188 544.03125 383.648438 547.160156 380.707031 549.566406 C 378.050781 551.746094 374.902344 552.835938 371.269531 552.835938 C 367.601562 552.835938 364.425781 551.746094 361.734375 549.566406 C 358.738281 547.148438 357.242188 543.992188 357.242188 540.089844 C 357.242188 537.703125 357.875 535.53125 359.152344 533.574219 C 360.371094 531.6875 362.058594 530.175781 364.222656 529.046875 C 366.382812 527.921875 368.726562 527.359375 371.234375 527.359375 Z M 371.191406 531.867188 C 368.792969 531.867188 366.769531 532.578125 365.105469 533.996094 C 363.28125 535.546875 362.371094 537.601562 362.371094 540.164062 C 362.371094 542.839844 363.445312 544.960938 365.589844 546.535156 C 367.257812 547.753906 369.152344 548.367188 371.277344 548.367188 C 373.59375 548.367188 375.597656 547.644531 377.28125 546.203125 C 379.113281 544.632812 380.03125 542.605469 380.03125 540.128906 C 380.03125 537.621094 379.097656 535.589844 377.246094 534.03125 C 375.542969 532.589844 373.523438 531.867188 371.191406 531.867188 "/>
<path fill-rule="nonzero" fill="rgb(100%, 100%, 100%)" fill-opacity="1" stroke-width="0.216" stroke-linecap="butt" stroke-linejoin="miter" stroke="rgb(100%, 100%, 100%)" stroke-opacity="1" stroke-miterlimit="22.925586" d="M 238.356113 383.179491 C 239.897048 385.686444 242.955453 390.712083 242.955453 390.712083 L 237.472226 394.083368 C 237.315786 394.181144 237.210189 394.24372 237.065482 394.009059 C 236.889487 393.723556 236.936419 393.62187 237.581734 393.15255 C 238.684637 392.366438 239.247822 391.588148 239.685854 390.313161 C 240.045666 389.261101 240.033933 388.658807 239.990912 388.001758 C 239.971357 387.798386 239.814917 386.95752 238.954496 385.440051 C 238.610328 384.822112 238.360024 384.474033 237.749907 383.480638 C 237.139791 382.487243 235.935202 380.531741 235.833516 380.484809 C 235.692719 380.430055 235.559745 380.508275 231.578344 382.925275 C 227.542188 385.369653 227.506989 385.428318 227.463968 385.596491 C 227.424858 385.764664 227.448324 385.862439 228.281368 387.219557 C 229.231742 388.756582 229.540711 389.143771 230.232958 389.6874 C 231.210709 390.453957 232.434853 390.633863 233.729396 390.164543 C 234.022721 390.055035 234.206538 389.941616 234.33169 389.972904 C 234.499863 390.012014 234.632838 390.289695 234.570261 390.364004 C 234.484219 390.453957 228.015419 394.505757 227.827691 394.548778 C 227.70645 394.587888 227.647785 394.552689 227.526544 394.411893 C 227.405303 394.271097 227.409214 394.161589 227.495256 394.067724 C 227.557832 393.993415 227.698628 393.872174 227.804225 393.809598 C 228.066263 393.649247 228.617714 392.910067 228.848463 392.409459 C 229.126144 391.807164 229.22392 391.028875 229.243475 390.477423 C 229.251297 390.254496 229.133966 390.004192 229.000992 389.726511 C 228.801531 389.347143 228.316567 388.561031 227.964576 387.990025 C 227.581298 387.360353 226.791275 386.081455 226.666123 386.054078 C 226.583992 386.034523 225.825257 386.499933 222.825518 388.345926 L 218.910603 390.755104 C 218.832383 390.802036 218.74243 390.89199 218.855849 391.075807 C 219.129619 391.51775 219.696715 392.499412 220.338119 393.54365 C 221.139875 394.849925 221.988563 396.054514 222.160647 396.27353 C 222.532192 396.762406 223.052356 397.200438 223.744604 397.564162 C 224.221746 397.810555 225.723571 398.146901 226.318044 398.178189 C 227.573476 398.232943 228.879751 397.896597 229.818392 397.317768 C 230.080429 397.157417 230.166471 397.176972 230.229047 397.282569 C 230.27598 397.360789 230.385488 397.474209 230.405043 397.568073 C 230.444153 397.689314 230.39331 397.720602 227.467879 399.519663 C 225.848723 400.516969 224.425118 401.357835 224.382097 401.346102 C 224.339076 401.33828 222.903738 398.944746 221.124231 396.046692 C 219.098331 392.761449 217.772501 390.66124 216.955101 389.331499 C 215.574517 387.086583 215.492386 386.95752 215.554962 386.8793 L 215.996905 386.609441 C 216.110325 386.613352 216.12988 386.707216 216.388006 387.125693 C 216.661776 387.567637 216.720441 387.602836 216.829949 387.606747 C 216.939457 387.610658 219.966574 385.74902 225.449801 382.377735 C 225.449801 382.377735 232.051575 378.314202 233.43607 377.465514 L 233.721574 377.285608 C 233.748951 377.269964 233.780239 377.144812 233.772417 377.074414 C 233.74504 376.914063 233.655087 376.82411 233.443892 376.483852 C 233.170122 376.041909 233.146656 376.057553 233.244431 375.924579 C 233.307007 375.85027 233.557312 375.73294 233.662909 375.670364 C 233.686375 375.650809 233.721574 375.705563 233.737218 375.73294 C 234.507685 376.984461 236.830822 380.699914 238.356113 383.179491 Z M 248.908001 396.868003 C 249.338211 397.161328 249.389054 397.196527 249.346033 397.313857 C 249.318656 397.407722 249.197415 397.583717 249.13875 397.618916 C 249.044886 397.701047 248.974488 397.693225 248.67334 397.485942 C 248.419125 397.309946 248.317439 397.243459 248.176643 397.180883 C 248.024114 397.075286 247.961538 397.219993 247.926339 397.270836 L 242.697327 404.909026 C 240.953019 407.462912 237.472226 412.543305 237.511336 412.644991 C 237.52698 412.731034 237.577823 412.766233 237.699064 412.699746 C 238.18794 412.476818 239.724964 411.749372 240.280327 411.424758 C 240.647961 411.264407 241.555314 410.810731 242.349248 410.462651 C 243.119715 410.098928 244.195241 409.610053 244.598075 409.402769 C 245.000908 409.195486 245.66969 408.870873 246.037324 408.714433 L 247.617369 407.979164 C 248.078868 407.736682 248.966666 407.306472 249.557227 407.040523 C 250.147789 406.774575 251.258514 406.238768 252.028981 405.871133 C 252.936334 405.417457 253.448676 405.210174 253.499519 405.245373 C 253.530807 405.304038 253.554273 405.542609 253.54254 405.832023 C 253.511252 406.367831 253.190549 410.196703 253.112329 411.072768 L 252.967622 412.531572 C 252.908957 413.642297 252.858114 414.31499 252.783805 414.968128 L 252.556967 417.522013 C 252.545234 417.924846 252.443548 419.043393 252.380972 420.0055 C 252.165867 422.379479 252.181511 422.465521 252.263642 422.559386 C 252.341862 422.61414 252.721229 422.054866 257.535674 415.026793 C 262.088083 408.378087 262.760775 407.388603 262.737309 407.263451 C 262.74122 407.153942 262.588691 407.048345 262.260167 406.821507 C 261.779113 406.492983 261.72827 406.457784 261.849511 406.172281 C 261.876888 406.078416 261.927731 406.004107 262.056795 405.980641 C 262.185858 405.957175 262.436162 406.12926 264.739743 407.705394 C 266.63658 409.003847 267.293628 409.453613 267.309272 409.535744 C 267.297539 409.606142 267.254518 409.723472 267.203675 409.797781 C 267.031591 410.051996 266.937727 410.024619 266.484051 409.71565 C 266.202458 409.524011 266.010819 409.426236 265.924777 409.445791 C 265.772248 409.449702 265.607986 409.63743 260.277288 417.424238 L 254.891836 425.289266 C 254.700197 425.566947 254.629799 425.778141 254.747129 425.930671 C 254.813616 426.051912 255.322046 426.39608 255.396355 426.450834 L 255.631016 426.646384 C 255.631016 426.646384 255.329868 427.146993 255.286847 427.154815 C 255.200805 427.170459 252.126756 424.988119 251.821698 424.780836 C 251.348467 424.495332 251.368022 424.358447 251.356289 423.943881 C 251.344556 423.525403 251.403221 422.786224 251.520551 421.6403 C 251.649614 420.095453 251.696546 419.759107 251.680902 419.673065 L 251.763033 418.577984 C 251.837342 418.034354 251.903829 417.338196 251.90774 417.00576 C 251.954672 416.665503 252.017248 415.926323 252.06418 415.36705 C 252.130668 414.780399 252.193244 413.931712 252.21671 413.466302 L 252.341862 412.140472 C 252.388794 411.913634 252.404438 411.291784 252.435726 410.755977 C 252.49048 409.645252 252.423993 409.524011 251.997693 409.71565 C 250.30814 410.450918 249.06053 410.971082 248.571654 411.194009 C 244.680206 413.024359 243.424774 413.611009 242.012901 414.318901 C 239.936158 415.347495 239.048361 415.777705 238.876276 415.808993 C 238.747213 415.832459 238.504731 415.703396 236.760423 414.506629 C 235.403305 413.61492 234.812744 413.172977 234.777545 413.114312 C 234.789278 413.047825 234.926163 412.844453 234.977006 412.770144 C 235.055226 412.598059 235.141268 412.582415 235.270331 412.668457 L 235.571478 412.879652 C 235.950846 413.137778 236.068176 413.180799 236.130752 413.149511 C 236.283281 413.141689 247.370976 397.000977 247.398353 396.797605 C 247.417908 396.66072 247.359243 396.586411 247.128494 396.429971 C 246.623974 396.081891 246.506644 395.929362 246.561398 395.741634 C 246.620063 395.596927 246.784326 395.41311 246.886012 395.483508 L 248.352638 396.484725 C 248.520811 396.562945 248.657696 396.692008 248.908001 396.868003 Z M 285.350732 430.733383 C 285.174737 431.222258 284.854034 431.965349 284.752348 432.094412 C 283.86064 433.361577 283.066706 434.085113 281.71741 434.5427 C 280.716193 434.882958 279.472493 435.08633 278.220972 434.996377 C 276.938163 434.898602 276.019077 434.65612 271.095124 433.181671 C 268.068007 432.274318 265.564965 431.558605 265.54541 431.519495 C 265.502389 431.445186 265.643185 430.979776 265.756604 430.9172 C 265.795714 430.897645 266.022552 430.99542 266.296322 431.046263 C 266.566182 431.097106 266.824308 431.202703 266.859507 431.183148 C 267.012036 431.101017 272.675169 412.191315 272.593038 412.038786 C 272.550017 411.960566 272.385755 411.878435 272.119807 411.800215 C 271.767816 411.694618 271.552711 411.66333 271.454936 411.569465 C 271.380627 411.483423 271.380627 411.385648 271.423648 411.240941 C 271.451025 411.150988 271.454936 411.025836 271.533156 410.986726 C 271.568355 410.96326 271.638753 410.951527 271.697418 410.971082 L 277.419217 412.684101 C 277.74383 412.781877 277.74383 412.781877 277.759474 412.946139 C 277.763385 413.043914 277.700809 413.247286 277.646055 413.325506 C 277.540458 413.454569 277.552191 413.427192 276.992917 413.259019 C 276.112941 412.996982 276.296759 412.699746 275.127369 416.602927 C 274.180906 419.774751 274.153529 419.860793 274.251304 419.954657 C 274.321702 420.040699 275.264254 420.322291 276.875587 420.807256 C 279.601557 421.620745 280.837434 422.086154 281.693944 422.53592 C 284.318227 423.928237 285.820052 426.392169 285.687078 428.977342 C 285.644057 429.540527 285.581481 430.064601 285.350732 430.733383 Z M 282.163264 427.921371 C 282.190641 427.2917 282.03029 426.12231 281.858206 425.625612 C 281.549236 424.733904 281.025162 423.806996 280.250783 423.095193 C 279.699332 422.578941 278.811534 422.121353 278.080176 421.902337 C 276.441466 421.40955 274.098775 420.678193 274.024466 420.721214 C 273.911046 420.779879 273.73114 421.272665 272.166739 426.497766 C 270.637536 431.609448 270.49674 432.176543 270.559316 432.289962 C 270.661002 432.481602 274.845776 433.670547 275.319008 433.68228 C 277.094603 433.737034 278.033244 433.600149 279.241744 432.872702 C 280.563663 432.08659 280.923476 431.523406 281.427995 430.588676 C 281.862117 429.783009 282.096777 428.989075 282.163264 427.921371 Z M 308.851952 441.680282 C 309.243053 441.989251 309.450336 442.313865 309.454247 442.37253 C 309.46598 442.493771 309.125723 442.857494 309.00057 442.869227 C 308.973193 442.869227 305.789637 440.19019 305.781815 440.100237 C 305.777904 440.068949 305.883501 439.846021 306.028208 439.713047 C 306.172915 439.580073 306.286334 439.478387 306.317622 439.474476 C 306.380198 439.470565 306.837786 439.865576 307.334483 440.319253 C 307.827269 440.77684 308.49214 441.402601 308.851952 441.680282 Z M 317.898104 429.313689 C 317.847261 429.470129 317.780774 429.783009 317.733841 430.002025 C 317.620422 430.502634 317.127636 431.742422 316.775646 432.383827 C 315.293375 435.109796 312.747312 436.717218 309.157011 437.632393 C 308.284857 437.85141 306.23158 437.945274 305.33596 437.859232 C 302.492661 437.58155 300.333787 436.670286 298.581657 435.051131 C 296.52838 433.142561 295.421566 430.737294 295.167351 427.377742 C 295.057843 425.911116 295.16344 424.456222 295.687514 422.8488 C 296.939035 419.008194 300.103037 416.192272 304.021863 415.617354 C 306.149449 415.304474 307.561321 415.320118 308.613381 415.394427 C 309.665441 415.468736 311.046025 415.879391 312.035509 416.356534 C 314.585484 417.608055 316.509697 419.923369 317.53438 422.88791 C 317.812062 423.697488 317.878549 424.182452 317.995879 425.340109 C 318.148408 426.927977 318.19534 428.371137 317.898104 429.313689 Z M 313.994922 426.4743 C 313.701597 423.392429 313.349606 421.573813 312.090263 419.520536 C 311.178999 418.022621 309.325184 416.685058 307.514389 416.30178 C 306.888629 416.164895 305.691861 416.160984 304.937038 416.34089 C 304.08835 416.528618 302.911138 417.111358 302.246267 417.682364 C 300.689688 419.03166 299.962241 420.377046 299.399057 422.69236 C 299.000134 424.319337 299.148752 427.905727 299.649361 430.080245 C 300.020906 431.711134 301.002568 433.733123 301.90601 434.738251 C 303.012824 435.946751 304.233057 436.650731 305.76226 436.998811 C 306.262868 437.11223 306.720455 437.069209 307.393148 437.018366 C 308.034553 436.967523 308.550805 436.908858 309.031859 436.752418 C 310.498485 436.271364 311.710896 435.227126 312.586961 433.807432 C 313.244009 432.743639 313.807194 430.913289 314.018388 429.23938 C 314.116163 428.46109 314.120074 427.725821 313.994922 426.4743 Z M 345.541077 420.97934 C 345.646674 421.710698 345.607564 422.203484 345.439391 422.993507 C 345.040468 424.8747 343.745926 426.497766 341.778691 427.929193 C 341.371947 428.222519 340.621034 428.640996 336.103825 430.698184 C 333.233149 432.012281 330.941301 433.189493 330.902191 433.173849 C 330.859169 433.162116 330.702729 432.829681 330.624509 432.661508 C 330.585399 432.579377 330.585399 432.579377 330.835703 432.462047 C 330.921746 432.422937 331.64137 432.082679 331.684391 432.027925 C 331.739145 431.934061 323.322666 414.017754 323.158403 413.959089 C 323.076272 413.931712 322.868989 413.994288 322.618685 414.111618 C 322.344915 414.240681 322.09461 414.358011 321.957725 414.3541 C 321.848217 414.338456 321.836484 414.240681 321.754353 414.146817 C 321.6644 414.017754 321.62529 413.869136 321.793463 413.790916 L 324.648496 412.44553 C 326.173787 411.729817 327.448774 411.131433 327.519172 411.131433 C 327.585659 411.135344 327.613037 411.190098 327.718634 411.413025 C 327.730367 411.440402 327.796854 411.577287 327.753833 411.632042 C 327.667791 411.737639 327.515261 411.843236 327.460507 411.870613 C 327.264957 411.960566 326.862124 412.117006 326.764349 412.195226 C 326.666574 412.277357 326.666574 412.343844 326.705684 412.429886 C 326.795637 412.621525 329.41992 418.636649 329.607648 418.750068 C 329.701512 418.808733 330.632331 418.335502 330.953034 418.222083 C 331.187694 418.143862 331.3676 418.026532 331.590527 417.920935 C 331.782166 417.830982 332.38055 417.514191 332.697341 416.892341 C 332.869425 416.540351 333.088442 415.996722 333.456076 415.046348 C 333.86282 414.04122 334.351696 412.558949 334.574623 411.811948 C 335.173006 409.770404 336.088181 407.681928 336.401062 407.263451 C 336.807806 406.700266 337.085487 406.571203 338.931481 405.699049 C 340.429395 404.998979 340.609301 404.948136 340.691432 405.045912 C 340.781386 405.171064 337.75818 413.904335 337.363168 414.498807 C 337.261482 414.647425 337.073754 415.038526 336.889937 415.296652 C 336.663099 415.605621 336.506659 415.777705 336.506659 415.777705 L 337.073754 415.683841 C 338.642067 415.421804 339.885766 415.546956 341.270261 415.981078 C 343.687261 416.739812 345.196909 418.60145 345.541077 420.97934 Z M 340.394196 418.929974 C 340.139981 418.67967 339.897499 418.452832 339.885766 418.425455 C 339.846656 418.343324 339.048811 417.870092 338.626423 417.694097 C 337.570452 417.244332 335.88872 417.052692 334.688042 417.381217 C 334.355607 417.467259 333.761134 417.713652 332.177178 418.456743 C 330.264697 419.356274 330.069147 419.446227 330.053503 419.555735 C 330.022215 419.704353 330.413315 420.607795 332.525257 425.03114 C 334.938346 430.095889 335.000922 430.299262 335.153451 430.33055 C 335.26296 430.350105 335.689259 430.181931 337.4101 429.372354 C 339.490754 428.394603 339.545508 428.367226 340.022651 427.940926 C 340.624945 427.420763 340.945648 427.100061 341.274172 426.642473 C 342.169792 425.375308 342.388808 424.190274 342.204991 422.719737 C 342.032907 421.343063 341.289816 419.829505 340.394196 418.929974 Z M 348.564283 398.111702 L 348.798943 398.393294 C 348.798943 398.393294 348.489974 398.64751 348.368732 398.788306 C 348.051941 399.171584 347.922878 399.159851 347.907234 399.288914 C 347.895501 399.417977 348.28269 399.93423 354.067065 406.919282 C 359.773219 413.814382 360.43809 414.616137 360.590619 414.608315 C 360.700127 414.596582 360.840923 414.479252 361.173358 414.209393 C 361.642679 413.818293 361.701344 413.888691 361.896894 414.123351 C 361.955559 414.193749 362.049423 414.3541 362.049423 414.3541 L 361.411929 414.882086 C 360.915232 415.292741 360.015701 416.078853 359.073149 416.861053 L 357.395329 418.24946 C 357.137202 418.460654 357.023783 418.276837 356.906453 418.13604 C 356.691348 417.877914 356.781301 417.842715 357.231067 417.47117 C 357.465727 417.27562 357.6339 417.095714 357.661277 417.033137 C 357.71212 416.951006 356.049944 414.987683 351.24332 409.179842 C 345.126511 401.791957 345.028735 401.670715 344.895761 401.702003 C 344.829274 401.717647 344.571148 401.889732 344.359954 402.065727 C 344.101828 402.280832 343.941476 402.374696 343.855434 402.366874 C 343.72246 402.355141 343.667706 402.241722 343.569931 402.124392 L 343.436957 401.956219 C 343.436957 401.956219 348.188826 397.943529 348.3218 397.912241 C 348.388288 397.896597 348.446953 397.966995 348.564283 398.111702 Z M 377.517442 384.900332 C 377.603484 385.041128 377.799034 385.291432 377.939831 385.467428 C 378.2488 385.878083 378.886293 387.051384 379.152242 387.731899 C 380.286433 390.618219 379.883599 393.602315 378.283999 396.942312 C 377.892898 397.75189 376.645288 399.386689 376.003884 400.020272 C 373.966251 402.022706 371.881686 403.09041 369.515529 403.395468 C 366.734805 403.747458 364.18092 403.047389 361.439306 401.084065 C 360.242539 400.227555 359.198301 399.214605 358.302682 397.783178 C 356.159452 394.357139 356.030388 390.121522 358.107131 386.750237 C 359.229589 384.915976 360.148675 383.84045 360.880033 383.085626 C 361.611391 382.326892 362.81598 381.529047 363.817197 381.079282 C 366.414103 379.929447 369.425576 379.937269 372.354917 381.055816 C 373.152762 381.360874 373.567329 381.622911 374.533346 382.276049 C 375.847444 383.179491 376.981635 384.067288 377.517442 384.900332 Z M 372.83206 386.069722 C 370.282086 384.317593 368.66293 383.421973 366.277218 383.066071 C 364.544643 382.804034 362.331015 383.367219 360.872211 384.509232 C 360.367691 384.900332 359.597224 385.819418 359.249144 386.511666 C 358.850222 387.282133 358.537342 388.561031 358.549075 389.437096 C 358.584274 391.494284 359.147458 392.917889 360.563242 394.834281 C 361.556637 396.187488 364.399936 398.373739 366.390637 399.386689 C 367.876818 400.149335 370.059158 400.692965 371.412366 400.646032 C 373.047165 400.571723 374.372995 400.086759 375.616694 399.140296 C 376.02735 398.831327 376.285476 398.451959 376.680487 397.900508 C 377.052033 397.380345 377.341447 396.942312 377.525264 396.472992 C 378.100182 395.037653 378.076716 393.438053 377.552641 391.858007 C 377.15763 390.669062 376.117303 389.065551 374.967468 387.825763 C 374.435571 387.254756 373.872387 386.777614 372.83206 386.069722 Z M 372.83206 386.069722 " transform="matrix(0.998785, 0, 0, -0.998785, 0, 841.323135)"/>
<path fill-rule="nonzero" fill="rgb(100%, 100%, 100%)" fill-opacity="1" d="M 283.273438 500.144531 L 289.496094 500.144531 C 290.53125 500.144531 291.269531 500.191406 291.710938 500.289062 C 292.058594 500.414062 292.511719 500.566406 293.082031 500.75 C 294.769531 501.296875 296.113281 502.292969 297.109375 503.742188 C 297.984375 505.003906 298.417969 506.488281 298.417969 508.1875 C 298.417969 510.660156 297.503906 512.605469 295.664062 514.03125 C 294.144531 515.210938 292.003906 515.796875 289.238281 515.796875 L 283.273438 515.796875 Z M 286.90625 503.027344 L 286.90625 512.886719 L 290.183594 512.886719 C 290.546875 512.886719 291.074219 512.78125 291.757812 512.566406 C 292.789062 512.25 293.566406 511.644531 294.09375 510.757812 C 294.75 509.640625 295.082031 508.757812 295.082031 508.121094 C 295.082031 504.726562 293.402344 503.027344 290.042969 503.027344 Z M 310.332031 499.742188 C 312.675781 499.742188 314.714844 500.460938 316.449219 501.894531 C 318.347656 503.46875 319.296875 505.511719 319.296875 508.019531 C 319.296875 510.511719 318.347656 512.535156 316.449219 514.089844 C 314.734375 515.496094 312.699219 516.199219 310.351562 516.199219 C 307.984375 516.199219 305.929688 515.496094 304.195312 514.089844 C 302.257812 512.527344 301.292969 510.488281 301.292969 507.964844 C 301.292969 506.425781 301.699219 505.023438 302.523438 503.757812 C 303.3125 502.539062 304.402344 501.5625 305.800781 500.832031 C 307.195312 500.109375 308.710938 499.742188 310.332031 499.742188 Z M 310.304688 502.65625 C 308.753906 502.65625 307.445312 503.113281 306.371094 504.03125 C 305.191406 505.03125 304.605469 506.359375 304.605469 508.015625 C 304.605469 509.742188 305.300781 511.113281 306.683594 512.128906 C 307.761719 512.917969 308.984375 513.3125 310.355469 513.3125 C 311.851562 513.3125 313.148438 512.847656 314.234375 511.914062 C 315.417969 510.902344 316.011719 509.589844 316.011719 507.992188 C 316.011719 506.371094 315.410156 505.058594 314.210938 504.050781 C 313.113281 503.121094 311.808594 502.65625 310.304688 502.65625 "/>
<path fill-rule="evenodd" fill="rgb(98.475647%, 76.797485%, 3.045654%)" fill-opacity="1" stroke-width="0.5669" stroke-linecap="butt" stroke-linejoin="miter" stroke="rgb(98.475647%, 76.797485%, 3.045654%)" stroke-opacity="1" stroke-miterlimit="22.925586" d="M 282.065489 392.577632 C 280.946942 393.082152 281.162047 393.907373 279.742353 393.836975 L 279.519426 391.169671 C 278.05671 391.760232 277.661699 392.577632 277.833783 389.984637 L 276.277204 390.320983 C 276.144229 388.451523 277.204111 387.235201 276.461021 384.990285 C 275.823527 383.054338 274.239571 382.612395 274.165262 381.317853 C 275.225144 380.926752 276.957718 381.838016 278.303103 381.599445 C 278.181862 379.061204 276.707414 377.027482 277.579568 373.851747 C 277.90027 372.682357 278.52212 371.857135 279.914437 371.923622 C 281.345864 371.990109 282.092866 372.85053 283.125371 373.276829 C 282.448767 369.006014 279.53507 363.546253 282.84769 357.480286 C 285.663612 352.317761 292.449203 351.500362 294.490747 350.315327 L 294.537679 347.804463 L 277.384018 346.971419 C 275.940857 346.877555 262.745131 345.935003 261.0634 345.340531 L 260.727053 345.195824 C 267.297539 345.055028 274.35299 345.438306 280.986052 345.524348 C 287.83813 345.618212 294.73714 345.809851 301.585308 345.802029 C 308.370899 345.790296 315.1956 345.618212 321.969458 345.528259 C 328.606431 345.442217 336.060804 344.957253 342.576536 345.21929 C 338.841528 346.924487 305.946077 347.816196 299.754958 347.87095 L 299.629806 351.124905 C 306.294156 352.571977 312.019865 357.664103 313.482581 363.878688 C 314.487709 368.149504 313.775906 371.599009 318.179696 372.588493 C 320.57323 373.128211 322.102432 372.38121 323.26009 371.141422 C 324.82058 369.467512 324.617208 367.993064 325.59887 366.667233 C 328.837181 370.808986 326.881679 374.649592 321.793463 376.550339 C 328.09409 377.156545 330.221676 372.478985 331.222893 367.062245 C 332.30233 367.742759 332.830315 369.596575 332.877247 370.906761 C 333.072797 376.143595 327.526994 380.33228 327.08114 381.040172 C 336.827361 382.643683 336.049071 370.58997 336.451905 364.746931 C 340.671877 367.914844 342.197169 379.307597 335.219938 383.734853 C 332.185 385.659067 327.761655 385.705999 324.065756 384.520965 C 319.478149 383.050427 315.172134 378.975162 312.833354 375.158022 C 312.430521 374.500974 311.984666 373.800904 311.593566 373.00697 C 310.67448 371.1336 310.873941 369.369737 304.98397 369.346271 C 302.817274 369.34236 300.889149 369.909455 299.285638 370.738588 C 292.898969 374.043386 291.667003 379.385817 289.304756 384.536609 C 288.898012 385.416585 288.366116 386.057989 288.061057 386.816724 C 288.643797 387.434662 289.570705 388.12691 290.012648 388.870001 C 290.810493 390.215386 289.688035 390.606486 288.944944 391.294823 C 289.136583 392.827936 289.253913 393.101707 287.697334 392.679318 L 287.634758 394.048169 L 286.821269 393.516273 C 286.789981 393.481074 286.74696 393.42632 286.715672 393.395032 L 286.508389 393.140817 C 285.777031 394.099013 286.054713 394.67393 285.233402 395.307513 C 284.537243 394.466647 284.955721 394.028614 284.388625 393.172105 C 284.020991 394.102924 283.39523 395.319246 282.687338 395.761189 C 282.042023 395.127606 282.159353 393.707912 282.065489 392.577632 Z M 282.065489 392.577632 " transform="matrix(0.998785, 0, 0, -0.998785, 0, 841.323135)"/>
<path fill-rule="evenodd" fill="rgb(34.075928%, 34.535217%, 35.319519%)" fill-opacity="1" stroke-width="0.5669" stroke-linecap="butt" stroke-linejoin="miter" stroke="rgb(34.075928%, 34.535217%, 35.319519%)" stroke-opacity="1" stroke-miterlimit="22.925586" d="M 210.040447 721.91151 C 236.040799 740.250206 268.294845 749.069519 299.950508 749.069519 C 331.606171 749.069519 363.860218 740.250206 389.860569 721.91151 L 427.148078 721.91151 C 453.821122 721.91151 475.605412 700.12722 475.605412 673.454176 L 475.605412 603.744448 C 475.605412 577.071404 453.821122 555.291025 427.148078 555.291025 L 389.860569 555.291025 C 363.860218 536.952329 331.610082 528.129105 299.950508 528.129105 C 268.294845 528.129105 236.040799 536.952329 210.040447 555.291025 L 172.752939 555.291025 C 146.079895 555.291025 124.295605 577.071404 124.295605 603.744448 L 124.295605 673.454176 C 124.295605 700.12722 146.079895 721.91151 172.752939 721.91151 Z M 210.040447 721.91151 " transform="matrix(0.998785, 0, 0, -0.998785, 0, 841.323135)"/>
<path fill-rule="evenodd" fill="rgb(100%, 100%, 100%)" fill-opacity="1" stroke-width="0.5669" stroke-linecap="butt" stroke-linejoin="miter" stroke="rgb(100%, 100%, 100%)" stroke-opacity="1" stroke-miterlimit="22.925586" d="M 211.862975 716.244466 C 237.147613 734.610539 268.885407 743.402475 299.950508 743.402475 C 331.019521 743.402475 362.757315 734.610539 388.041953 716.244466 L 427.148078 716.244466 C 450.692319 716.244466 469.934457 696.998417 469.934457 673.454176 L 469.934457 603.744448 C 469.934457 580.200207 450.692319 560.958069 427.148078 560.958069 L 388.041953 560.958069 C 362.757315 542.591996 331.019521 533.80006 299.950508 533.80006 C 268.885407 533.80006 237.147613 542.591996 211.859064 560.958069 L 172.752939 560.958069 C 149.208697 560.958069 129.96656 580.200207 129.96656 603.744448 L 129.96656 673.454176 C 129.96656 696.998417 149.208697 716.244466 172.752939 716.244466 Z M 211.862975 716.244466 " transform="matrix(0.998785, 0, 0, -0.998785, 0, 841.323135)"/>
<path fill-rule="evenodd" fill="rgb(13.729858%, 12.159729%, 12.548828%)" fill-opacity="1" stroke-width="0.5669" stroke-linecap="butt" stroke-linejoin="miter" stroke="rgb(13.729858%, 12.159729%, 12.548828%)" stroke-opacity="1" stroke-miterlimit="22.925586" d="M 172.752939 710.573511 L 427.148078 710.573511 C 447.563516 710.573511 464.267412 693.869615 464.267412 673.454176 L 464.267412 603.744448 C 464.267412 583.32901 447.563516 566.629024 427.148078 566.629024 L 172.752939 566.629024 C 152.3375 566.629024 135.633604 583.32901 135.633604 603.744448 L 135.633604 673.454176 C 135.633604 693.869615 152.3375 710.573511 172.752939 710.573511 Z M 172.752939 710.573511 " transform="matrix(0.998785, 0, 0, -0.998785, 0, 841.323135)"/>
<path fill-rule="evenodd" fill="rgb(13.729858%, 12.159729%, 12.548828%)" fill-opacity="1" stroke-width="0.5669" stroke-linecap="butt" stroke-linejoin="miter" stroke="rgb(13.729858%, 12.159729%, 12.548828%)" stroke-opacity="1" stroke-miterlimit="22.925586" d="M 299.950508 737.73152 C 369.198738 737.73152 425.337283 693.349451 425.337283 638.599312 C 425.337283 583.853084 369.198738 539.467104 299.950508 539.467104 C 230.702279 539.467104 174.563734 583.853084 174.563734 638.599312 C 174.563734 693.349451 230.702279 737.73152 299.950508 737.73152 Z M 299.950508 737.73152 " transform="matrix(0.998785, 0, 0, -0.998785, 0, 841.323135)"/>
<path fill-rule="evenodd" fill="rgb(98.475647%, 76.797485%, 3.045654%)" fill-opacity="1" d="M 277.824219 123.058594 C 276.578125 122.503906 276.820312 121.585938 275.242188 121.660156 L 274.992188 124.625 C 273.371094 123.972656 272.929688 123.058594 273.121094 125.945312 L 271.390625 125.570312 C 271.242188 127.644531 272.421875 128.996094 271.597656 131.492188 C 270.886719 133.640625 269.128906 134.136719 269.042969 135.574219 C 270.222656 136.007812 272.148438 134.992188 273.640625 135.261719 C 273.507812 138.078125 271.871094 140.339844 272.839844 143.871094 C 273.195312 145.167969 273.882812 146.085938 275.433594 146.011719 C 277.023438 145.9375 277.851562 144.980469 279.003906 144.507812 C 278.25 149.253906 275.011719 155.316406 278.691406 162.058594 C 281.820312 167.796875 289.359375 168.703125 291.628906 170.019531 L 291.683594 172.808594 L 272.621094 173.738281 C 271.019531 173.839844 256.355469 174.886719 254.488281 175.546875 L 254.113281 175.710938 C 261.414062 175.867188 269.257812 175.441406 276.625 175.34375 C 284.238281 175.242188 291.902344 175.023438 299.511719 175.035156 C 307.050781 175.046875 314.636719 175.242188 322.160156 175.339844 C 329.539062 175.433594 337.820312 175.972656 345.058594 175.679688 C 340.90625 173.789062 304.359375 172.796875 297.480469 172.738281 L 297.339844 169.121094 C 304.746094 167.515625 311.105469 161.855469 312.730469 154.949219 C 313.847656 150.203125 313.058594 146.371094 317.949219 145.269531 C 320.613281 144.671875 322.308594 145.5 323.59375 146.878906 C 325.332031 148.742188 325.105469 150.378906 326.195312 151.851562 C 329.792969 147.25 327.621094 142.980469 321.96875 140.871094 C 328.96875 140.195312 331.332031 145.394531 332.445312 151.414062 C 333.644531 150.65625 334.226562 148.59375 334.28125 147.144531 C 334.5 141.324219 328.339844 136.667969 327.839844 135.878906 C 338.671875 134.101562 337.808594 147.496094 338.257812 153.988281 C 342.941406 150.46875 344.636719 137.808594 336.882812 132.886719 C 333.511719 130.75 328.597656 130.699219 324.488281 132.015625 C 319.394531 133.648438 314.609375 138.175781 312.011719 142.417969 C 311.5625 143.148438 311.066406 143.925781 310.632812 144.804688 C 309.609375 146.890625 309.832031 148.851562 303.289062 148.871094 C 300.882812 148.882812 298.738281 148.25 296.957031 147.328125 C 289.863281 143.65625 288.492188 137.71875 285.867188 131.996094 C 285.417969 131.019531 284.824219 130.308594 284.484375 129.460938 C 285.132812 128.777344 286.164062 128.007812 286.652344 127.179688 C 287.539062 125.6875 286.292969 125.25 285.464844 124.484375 C 285.683594 122.785156 285.808594 122.476562 284.082031 122.949219 L 284.011719 121.425781 L 283.109375 122.019531 C 283.070312 122.058594 283.023438 122.121094 282.992188 122.15625 L 282.761719 122.4375 C 281.949219 121.371094 282.257812 120.734375 281.34375 120.027344 C 280.570312 120.960938 281.03125 121.449219 280.402344 122.402344 C 279.996094 121.363281 279.300781 120.015625 278.511719 119.523438 C 277.796875 120.230469 277.929688 121.808594 277.824219 123.058594 "/>
<path fill-rule="nonzero" fill="rgb(100%, 100%, 100%)" fill-opacity="1" stroke-width="0.216" stroke-linecap="butt" stroke-linejoin="miter" stroke="rgb(100%, 100%, 100%)" stroke-opacity="1" stroke-miterlimit="22.925586" d="M 216.567912 630.272785 C 219.954841 630.272785 226.724788 630.307984 226.724788 630.307984 L 226.724788 637.715425 C 226.724788 637.926619 226.724788 638.067416 226.407997 638.067416 C 226.020808 638.067416 225.95041 637.961818 225.880012 637.046644 C 225.770503 635.493975 225.348115 634.469292 224.362542 633.272525 C 223.549053 632.283041 222.95067 631.931051 222.281888 631.579061 C 222.070694 631.473464 221.151608 631.121473 219.141352 631.051075 C 218.331775 631.015876 217.838988 631.051075 216.497514 631.051075 C 215.15604 631.051075 212.512201 631.051075 212.406604 631.121473 C 212.265808 631.22707 212.265808 631.403065 212.230609 636.76114 C 212.19541 642.193524 212.230609 642.263922 212.371405 642.404719 C 212.512201 642.545515 212.617798 642.580714 214.452059 642.580714 C 216.532713 642.580714 217.095897 642.510316 218.050182 642.158325 C 219.387746 641.665539 220.306831 640.570458 220.623623 639.0217 C 220.694021 638.665799 220.694021 638.419406 220.799618 638.313809 C 220.940414 638.173013 221.292404 638.208212 221.327603 638.313809 C 221.362802 638.454605 221.4332 647.238719 221.362802 647.449913 C 221.327603 647.590709 221.257205 647.625908 221.046011 647.661107 C 220.834817 647.696306 220.72922 647.625908 220.694021 647.485112 C 220.658822 647.379515 220.623623 647.16441 220.623623 647.023614 C 220.623623 646.671623 220.236433 645.686051 219.884443 645.158065 C 219.458144 644.520571 218.754163 643.957387 218.226178 643.605397 C 218.014983 643.4646 217.698192 643.429401 217.342291 643.394202 C 216.849504 643.359003 215.793533 643.359003 215.015244 643.359003 C 214.170467 643.359003 212.441803 643.359003 212.336206 643.4646 C 212.265808 643.534999 212.265808 644.55577 212.265808 648.611481 L 212.265808 653.903069 C 212.265808 654.008666 212.301007 654.149462 212.5474 654.149462 C 213.145784 654.149462 214.452059 654.184661 215.863931 654.184661 C 217.627794 654.184661 219.317348 654.079064 219.63805 654.043865 C 220.34203 653.973467 221.08121 653.727074 221.8595 653.265575 C 222.387485 652.948784 223.619451 651.681619 224.010552 651.114523 C 224.82013 649.917756 225.277717 648.435486 225.277717 647.16441 C 225.277717 646.81242 225.348115 646.742021 225.488911 646.742021 C 225.594508 646.742021 225.770503 646.706822 225.880012 646.742021 C 226.020808 646.777221 226.020808 646.847619 226.020808 650.797732 C 226.020808 652.983983 225.985609 654.888642 225.95041 654.923841 C 225.915211 654.95904 222.704277 654.923841 218.789362 654.923841 C 214.346462 654.923841 211.491429 654.95904 209.692368 654.95904 C 206.657429 654.95904 206.481434 654.95904 206.446235 654.853443 L 206.446235 654.255059 C 206.516633 654.149462 206.62223 654.184661 207.189325 654.184661 C 207.787709 654.184661 207.858107 654.149462 207.928505 654.043865 C 207.998903 653.938268 207.998903 649.847358 207.998903 642.439918 C 207.998903 642.439918 207.998903 633.518918 207.998903 631.649459 L 207.998903 631.262269 C 207.998903 631.22707 207.893306 631.121473 207.822908 631.086274 C 207.646913 631.015876 207.506117 631.051075 207.044618 631.051075 C 206.446235 631.051075 206.446235 631.086274 206.375837 630.910279 C 206.340638 630.804682 206.375837 630.48398 206.375837 630.343183 C 206.375837 630.307984 206.446235 630.307984 206.481434 630.307984 C 208.174898 630.307984 213.216182 630.272785 216.567912 630.272785 Z M 235.853071 630.272785 C 236.451454 630.272785 236.521852 630.272785 236.557051 630.413582 C 236.59225 630.519179 236.59225 630.769483 236.557051 630.839881 C 236.521852 630.980677 236.451454 631.015876 236.029066 631.015876 C 235.673164 631.015876 235.532368 631.015876 235.356373 631.051075 C 235.145179 631.051075 235.180378 631.22707 235.180378 631.297468 L 235.180378 641.947131 C 235.180378 645.510055 235.180378 652.596794 235.285975 652.667192 C 235.356373 652.73759 235.426771 652.73759 235.497169 652.596794 C 235.817872 652.068808 236.803444 650.375344 237.120236 649.706562 C 237.366629 649.319373 237.933725 648.29469 238.46171 647.449913 C 238.954496 646.601225 239.658477 645.439657 239.90487 644.978159 C 240.155175 644.520571 240.577563 643.781392 240.823956 643.394202 L 241.844728 641.665539 C 242.130231 641.137553 242.693416 640.148069 243.080605 639.514487 C 243.467795 638.880904 244.175686 637.645027 244.668473 636.796339 C 245.231657 635.775567 245.583648 635.247582 245.654046 635.247582 C 245.724444 635.282781 245.900439 635.493975 246.080345 635.775567 C 246.397136 636.303553 248.583387 640.148069 249.076174 641.031956 L 249.885751 642.510316 C 250.558444 643.605397 250.945633 644.274178 251.297624 644.94296 L 252.744695 647.520311 C 252.991088 647.907501 253.624671 649.03387 254.187855 649.988154 C 255.52933 652.3856 255.599728 652.455998 255.740524 652.491197 C 255.846121 652.491197 255.846121 651.716818 255.846121 641.911932 C 255.846121 632.635032 255.846121 631.262269 255.740524 631.156672 C 255.670126 631.051075 255.458932 631.051075 255.001344 631.051075 C 254.328652 631.051075 254.258253 631.051075 254.187855 630.699085 C 254.152656 630.589577 254.152656 630.48398 254.258253 630.378383 C 254.363851 630.272785 254.719752 630.272785 257.926775 630.272785 C 260.570613 630.272785 261.489699 630.272785 261.560097 630.343183 C 261.595296 630.413582 261.630495 630.554378 261.630495 630.659975 C 261.630495 631.015876 261.524898 631.051075 260.891316 631.051075 C 260.504126 631.051075 260.253822 631.086274 260.183424 631.156672 C 260.042628 631.262269 260.007429 631.543862 260.007429 642.404719 L 260.007429 653.371173 C 260.007429 653.762273 260.077827 654.008666 260.289021 654.079064 C 260.429817 654.149462 261.137709 654.149462 261.243306 654.149462 L 261.595296 654.184661 C 261.595296 654.184661 261.630495 654.853443 261.595296 654.888642 C 261.524898 654.95904 257.187595 654.888642 256.765207 654.888642 C 256.127713 654.923841 256.057315 654.783045 255.775723 654.395855 C 255.494131 654.008666 255.071742 653.265575 254.43816 652.104007 C 253.554273 650.551339 253.378278 650.199349 253.30788 650.128951 L 252.674297 649.03387 C 252.392705 648.470685 252.001604 647.766704 251.79041 647.449913 C 251.614415 647.094012 251.192027 646.354832 250.875235 645.791648 C 250.558444 645.193264 250.061747 644.344576 249.780154 643.886989 L 249.040975 642.545515 C 248.935378 642.299121 248.548188 641.700738 248.231397 641.172752 C 247.558704 640.077671 247.417908 640.007273 247.136316 640.464861 C 246.006036 642.263922 245.161259 643.570198 244.844468 644.098183 C 242.341426 648.365088 241.527937 649.741761 240.647961 651.325718 C 239.341686 653.656676 238.778501 654.642249 238.637705 654.783045 C 238.532108 654.888642 238.215317 654.923841 235.778762 654.923841 C 233.913213 654.95904 233.064525 654.923841 232.994127 654.888642 C 232.958928 654.818244 232.958928 654.536652 232.958928 654.431055 C 232.923729 654.21986 232.994127 654.149462 233.170122 654.149462 L 233.592511 654.149462 C 234.124407 654.149462 234.265203 654.114263 234.300402 654.043865 C 234.441198 653.938268 234.476397 631.403065 234.3708 631.191871 C 234.300402 631.051075 234.194805 631.015876 233.878014 631.015876 C 233.170122 631.015876 232.958928 630.945478 232.88853 630.734284 C 232.853331 630.554378 232.88853 630.272785 233.029326 630.272785 L 235.074781 630.272785 C 235.285975 630.237586 235.497169 630.272785 235.853071 630.272785 Z M 288.561666 647.55551 C 288.526467 648.153894 288.42087 649.076891 288.350472 649.252886 C 287.783376 650.94635 287.149794 652.002321 285.808319 652.956606 C 284.822746 653.660587 283.516471 654.294169 282.10851 654.60705 C 280.661439 654.923841 279.566358 654.95904 273.649009 654.95904 C 270.015687 654.95904 267.019858 654.994239 266.984659 654.95904 C 266.914261 654.888642 266.914261 654.329368 267.019858 654.223771 C 267.055057 654.188572 267.336649 654.223771 267.653441 654.188572 C 267.970232 654.153373 268.287023 654.188572 268.326133 654.153373 C 268.466929 654.012577 268.466929 631.297468 268.326133 631.156672 C 268.251824 631.086274 268.04063 631.051075 267.723839 631.051075 C 267.30145 631.051075 267.055057 631.086274 266.914261 631.015876 C 266.808664 630.945478 266.773465 630.839881 266.773465 630.659975 C 266.773465 630.554378 266.738266 630.413582 266.808664 630.343183 C 266.843863 630.307984 266.914261 630.272785 266.984659 630.272785 L 273.860203 630.272785 C 274.247393 630.272785 274.247393 630.272785 274.317791 630.448781 C 274.35299 630.554378 274.35299 630.804682 274.317791 630.910279 C 274.247393 631.086274 274.247393 631.051075 273.578611 631.051075 C 272.518729 631.051075 272.628237 630.659975 272.628237 635.353179 C 272.628237 639.162497 272.628237 639.268094 272.769033 639.338492 C 272.87463 639.40889 274.000999 639.40889 275.940857 639.40889 C 279.214367 639.40889 280.731837 639.514487 281.826918 639.725681 C 285.174737 640.394463 287.64258 642.615913 288.350472 645.510055 C 288.491268 646.143638 288.596865 646.742021 288.561666 647.55551 Z M 284.118766 645.510055 C 283.93886 644.802164 283.375675 643.570198 283.023685 643.0735 C 282.390102 642.193524 281.506215 641.348748 280.415045 640.816851 C 279.636756 640.429662 278.510387 640.218468 277.6265 640.218468 C 275.659265 640.218468 272.839431 640.183268 272.769033 640.253667 C 272.663436 640.359264 272.628237 640.957647 272.628237 647.238719 C 272.628237 653.378995 272.663436 654.047776 272.769033 654.153373 C 272.945029 654.329368 277.947202 654.25897 278.475188 654.118174 C 280.450244 653.590189 281.435817 653.132601 282.530898 651.931923 C 283.727665 650.629559 283.93886 649.886468 284.189164 648.689701 C 284.400358 647.661107 284.400358 646.706822 284.118766 645.510055 Z M 308.171438 660.113743 C 308.597737 660.500932 308.808931 660.892032 308.808931 660.96243 C 308.808931 661.103227 308.386543 661.490416 308.241836 661.490416 C 308.206637 661.490416 304.78842 658.138686 304.78842 658.033089 C 304.78842 657.99789 304.929216 657.751497 305.105211 657.6107 C 305.281206 657.469904 305.422002 657.364307 305.457201 657.364307 C 305.527599 657.364307 306.020386 657.857094 306.552282 658.420278 C 307.080268 658.987374 307.784248 659.761752 308.171438 660.113743 Z M 319.626767 646.706822 C 319.556369 646.882818 319.450772 647.238719 319.380374 647.485112 C 319.204379 648.048297 318.535597 649.428881 318.07801 650.132862 C 316.138152 653.132601 313.075836 654.755668 308.879329 655.494847 C 307.854646 655.670843 305.4924 655.600445 304.471628 655.424449 C 301.233317 654.861265 298.831961 653.625388 296.966412 651.615132 C 294.772339 649.245064 293.712458 646.390031 293.712458 642.510316 C 293.712458 640.816851 293.962762 639.162497 294.701941 637.363435 C 296.469715 633.061331 300.349431 630.104612 304.894017 629.787821 C 307.36186 629.611826 308.984926 629.752622 310.181694 629.928617 C 311.382372 630.104612 312.93504 630.699085 314.02621 631.332667 C 316.842133 632.990933 318.852388 635.810766 319.771474 639.303293 C 320.017868 640.253667 320.053067 640.816851 320.088266 642.158325 C 320.123465 643.992586 320.053067 645.650851 319.626767 646.706822 Z M 315.395061 643.11261 C 315.324663 639.549686 315.07827 637.433833 313.815016 634.96599 C 312.899841 633.166928 310.889585 631.473464 308.84413 630.87508 C 308.136239 630.659975 306.763476 630.554378 305.87959 630.699085 C 304.894017 630.839881 303.489966 631.403065 302.676478 632.001449 C 300.771819 633.413321 299.821445 634.895592 298.972757 637.504231 C 298.374374 639.338492 298.233578 643.4646 298.620767 646.002842 C 298.902359 647.907501 299.856644 650.308857 300.807018 651.544734 C 301.972497 653.027004 303.313971 653.942179 305.034813 654.474076 C 305.597997 654.650071 306.125983 654.638338 306.904273 654.638338 C 307.643452 654.638338 308.241836 654.614872 308.808931 654.474076 C 310.537595 654.047776 312.015954 652.956606 313.146234 651.403938 C 313.991011 650.238459 314.796678 648.189093 315.183867 646.284434 C 315.359862 645.404458 315.43026 644.55577 315.395061 643.11261 Z M 346.659624 649.460169 C 346.413231 650.269747 346.131638 650.762533 345.564543 651.505624 C 344.230891 653.265575 342.087661 654.325457 339.334314 654.853443 C 338.77113 654.95904 337.781646 655.029438 332.071581 654.95904 C 328.438258 654.923841 325.477629 655.029438 325.44243 654.994239 C 325.40723 654.95904 325.40723 654.536652 325.40723 654.325457 C 325.40723 654.21986 325.40723 654.21986 325.724022 654.21986 C 325.829619 654.21986 326.744794 654.21986 326.815192 654.184661 C 326.920789 654.114263 326.920789 631.332667 326.779993 631.191871 C 326.709595 631.121473 326.463201 631.086274 326.14641 631.086274 C 325.79442 631.086274 325.477629 631.086274 325.332921 631.015876 C 325.227324 630.945478 325.262523 630.839881 325.227324 630.699085 C 325.192125 630.519179 325.227324 630.343183 325.44243 630.343183 L 329.071841 630.343183 C 331.011699 630.343183 332.634765 630.343183 332.705163 630.378383 C 332.775561 630.413582 332.775561 630.48398 332.775561 630.769483 C 332.775561 630.804682 332.775561 630.980677 332.705163 631.015876 C 332.564367 631.086274 332.353173 631.121473 332.282775 631.121473 C 332.036382 631.121473 331.539684 631.086274 331.398888 631.121473 C 331.258092 631.156672 331.222893 631.22707 331.222893 631.332667 C 331.222893 631.579061 331.011699 639.127298 331.152495 639.338492 C 331.222893 639.444089 332.423571 639.40889 332.81076 639.444089 C 333.092353 639.479288 333.338746 639.444089 333.620338 639.444089 C 333.870642 639.444089 334.645021 639.40889 335.278604 638.912192 C 335.630594 638.6306 336.127291 638.173013 336.972068 637.363435 C 337.891154 636.514747 339.12312 635.212383 339.721504 634.53969 C 341.34457 632.709341 343.319627 630.980677 343.847612 630.699085 C 344.547682 630.307984 344.899672 630.307984 347.254096 630.307984 C 349.158755 630.307984 349.369949 630.343183 349.405148 630.48398 C 349.440347 630.659975 342.017263 638.27861 341.309371 638.700998 C 341.133376 638.806595 340.746187 639.127298 340.429395 639.303293 C 340.042206 639.514487 339.791902 639.620084 339.791902 639.620084 L 340.429395 639.796079 C 342.193258 640.288866 343.425224 641.031956 344.653279 642.158325 C 346.80042 644.133382 347.465291 646.81242 346.659624 649.460169 Z M 342.298855 644.802164 C 342.158059 644.414974 342.017263 644.062984 342.017263 644.027785 C 342.017263 643.922188 341.414968 643.038301 341.062978 642.651112 C 340.183002 641.665539 338.524736 640.640856 337.112864 640.394463 C 336.725675 640.324065 335.986495 640.288866 333.976239 640.288866 C 331.539684 640.288866 331.293291 640.288866 331.222893 640.394463 C 331.117296 640.535259 331.082097 641.665539 331.117296 647.309117 C 331.152495 653.762273 331.117296 654.008666 331.258092 654.114263 C 331.363689 654.184661 331.895585 654.21986 334.081836 654.21986 C 336.725675 654.21986 336.796073 654.21986 337.500054 654.008666 C 338.38394 653.762273 338.876727 653.586278 339.439911 653.265575 C 340.99258 652.3856 341.802157 651.259231 342.334054 649.636164 C 342.82684 648.118695 342.791641 646.178837 342.298855 644.802164 Z M 361.228112 630.624776 L 361.228112 631.051075 C 361.228112 631.051075 360.770525 631.051075 360.559331 631.086274 C 359.992235 631.191871 359.886638 631.086274 359.781041 631.191871 C 359.675444 631.297468 359.640245 632.036648 359.640245 642.475117 C 359.640245 652.772789 359.640245 653.973467 359.781041 654.079064 C 359.886638 654.149462 360.101743 654.149462 360.59453 654.149462 C 361.29851 654.149462 361.29851 654.255059 361.29851 654.60705 C 361.29851 654.712647 361.263311 654.923841 361.263311 654.923841 L 360.312937 654.923841 C 359.569847 654.923841 358.197084 654.95904 356.785212 654.95904 L 354.28217 654.95904 C 353.89107 654.95904 353.926269 654.712647 353.926269 654.501453 C 353.926269 654.114263 354.035777 654.149462 354.704558 654.149462 C 355.056549 654.149462 355.338141 654.114263 355.408539 654.079064 C 355.514136 654.043865 355.478937 651.079324 355.478937 642.404719 C 355.478937 631.367866 355.478937 631.191871 355.338141 631.121473 C 355.267743 631.086274 354.915752 631.051075 354.598961 631.051075 C 354.211772 631.051075 354.000578 631.015876 353.926269 630.945478 C 353.820671 630.839881 353.859782 630.699085 353.859782 630.519179 L 353.859782 630.272785 C 353.859782 630.272785 361.016918 630.202387 361.157714 630.272785 C 361.228112 630.307984 361.228112 630.413582 361.228112 630.624776 Z M 393.067592 646.706822 C 392.997194 646.882818 392.891597 647.238719 392.821199 647.485112 C 392.641293 648.048297 391.972511 649.428881 391.514924 650.132862 C 389.575066 653.132601 386.51275 654.755668 382.316244 655.494847 C 381.295472 655.670843 378.929314 655.600445 377.908542 655.424449 C 374.670232 654.861265 372.272786 653.625388 370.403327 651.615132 C 368.209254 649.245064 367.153283 646.390031 367.153283 642.510316 C 367.153283 640.816851 367.399676 639.162497 368.138856 637.363435 C 369.906629 633.061331 373.786345 630.104612 378.330931 629.787821 C 380.798774 629.611826 382.421841 629.752622 383.622519 629.928617 C 384.819286 630.104612 386.371954 630.699085 387.463124 631.332667 C 390.279047 632.990933 392.289303 635.810766 393.208388 639.303293 C 393.454782 640.253667 393.489981 640.816851 393.52518 642.158325 C 393.560379 643.992586 393.489981 645.650851 393.067592 646.706822 Z M 388.835886 643.11261 C 388.765488 639.549686 388.515184 637.433833 387.25193 634.96599 C 386.336755 633.166928 384.326499 631.473464 382.281044 630.87508 C 381.577064 630.659975 380.200391 630.554378 379.320415 630.699085 C 378.330931 630.839881 376.926881 631.403065 376.113392 632.001449 C 374.212644 633.413321 373.258359 634.895592 372.413582 637.504231 C 371.811288 639.338492 371.670492 643.4646 372.061592 646.002842 C 372.343184 647.907501 373.293558 650.308857 374.247843 651.544734 C 375.409411 653.027004 376.750885 653.942179 378.471727 654.474076 C 379.034912 654.650071 379.566808 654.638338 380.341187 654.638338 C 381.080366 654.638338 381.682661 654.614872 382.245845 654.474076 C 383.974509 654.047776 385.452868 652.956606 386.583148 651.403938 C 387.427925 650.238459 388.233592 648.189093 388.624692 646.284434 C 388.800687 645.404458 388.871086 644.55577 388.835886 643.11261 Z M 388.835886 643.11261 " transform="matrix(0.998785, 0, 0, -0.998785, 0, 841.323135)"/>
<path fill-rule="nonzero" fill="rgb(100%, 100%, 100%)" fill-opacity="1" d="M 170.519531 225.273438 L 181.445312 225.273438 C 183.257812 225.273438 184.554688 225.359375 185.328125 225.53125 C 185.9375 225.75 186.734375 226.015625 187.734375 226.335938 C 190.699219 227.296875 193.058594 229.046875 194.808594 231.585938 C 196.339844 233.804688 197.105469 236.410156 197.105469 239.394531 C 197.105469 243.730469 195.496094 247.148438 192.269531 249.648438 C 189.605469 251.71875 185.84375 252.75 180.992188 252.75 L 170.519531 252.75 Z M 176.898438 230.335938 L 176.898438 247.640625 L 182.648438 247.640625 C 183.289062 247.640625 184.210938 247.453125 185.414062 247.078125 C 187.21875 246.519531 188.589844 245.457031 189.511719 243.902344 C 190.667969 241.941406 191.246094 240.394531 191.246094 239.277344 C 191.246094 233.3125 188.300781 230.335938 182.40625 230.335938 Z M 218.011719 224.570312 C 222.128906 224.570312 225.710938 225.828125 228.75 228.34375 C 232.085938 231.109375 233.75 234.695312 233.75 239.097656 C 233.75 243.472656 232.085938 247.023438 228.75 249.75 C 225.742188 252.21875 222.167969 253.453125 218.050781 253.453125 C 213.894531 253.453125 210.289062 252.21875 207.242188 249.75 C 203.84375 247.003906 202.148438 243.425781 202.148438 239.003906 C 202.148438 236.300781 202.867188 233.835938 204.3125 231.617188 C 205.695312 229.476562 207.609375 227.765625 210.0625 226.484375 C 212.511719 225.210938 215.167969 224.570312 218.011719 224.570312 Z M 217.964844 229.679688 C 215.246094 229.679688 212.949219 230.484375 211.0625 232.09375 C 208.992188 233.851562 207.960938 236.183594 207.960938 239.089844 C 207.960938 242.121094 209.179688 244.527344 211.609375 246.308594 C 213.503906 247.695312 215.652344 248.390625 218.058594 248.390625 C 220.683594 248.390625 222.957031 247.570312 224.867188 245.933594 C 226.945312 244.152344 227.984375 241.855469 227.984375 239.050781 C 227.984375 236.207031 226.929688 233.898438 224.828125 232.132812 C 222.894531 230.5 220.605469 229.679688 217.964844 229.679688 "/>
<path fill-rule="nonzero" fill="rgb(98.475647%, 76.797485%, 3.045654%)" fill-opacity="1" d="M 240.480469 225.273438 L 257.101562 225.273438 L 257.101562 230.335938 L 246.765625 230.335938 L 246.765625 236.105469 L 254.671875 236.105469 L 254.671875 241.167969 L 246.765625 241.167969 L 246.765625 252.75 L 240.480469 252.75 Z M 262.777344 225.273438 L 271.398438 225.273438 C 279.40625 225.273438 283.410156 227.992188 283.410156 233.429688 C 283.410156 237.128906 281.5 239.636719 277.6875 240.957031 L 285.285156 252.75 L 278.296875 252.75 L 271.328125 242.011719 C 270.664062 242.035156 269.933594 242.050781 269.152344 242.050781 L 269.152344 252.75 L 262.777344 252.75 Z M 269.152344 236.949219 L 272.664062 236.949219 C 273.796875 236.949219 274.789062 236.683594 275.65625 236.144531 C 276.695312 235.492188 277.21875 234.585938 277.21875 233.429688 C 277.21875 231.398438 275.625 230.382812 272.445312 230.382812 L 269.152344 230.382812 Z M 300.085938 225.273438 L 306.542969 225.273438 L 319.429688 252.75 L 312.800781 252.75 L 310.183594 246.511719 L 296.515625 246.511719 L 293.792969 252.75 L 287.160156 252.75 Z M 303.335938 231.796875 L 298.90625 241.214844 L 307.753906 241.214844 Z M 324.390625 225.273438 L 330.488281 225.273438 L 344.882812 243.347656 L 344.882812 225.273438 L 351.257812 225.273438 L 351.257812 252.75 L 345.117188 252.75 L 330.769531 234.726562 L 330.769531 252.75 L 324.390625 252.75 Z M 383.753906 238.019531 L 389.054688 238.019531 L 389.054688 238.074219 L 389.140625 238.074219 L 389.171875 239.230469 C 389.210938 240.363281 389.171875 241.371094 389.054688 242.269531 L 389.054688 253.078125 L 383.753906 253.078125 L 383.753906 251.390625 C 381.425781 252.765625 378.636719 253.453125 375.367188 253.453125 C 368.851562 253.453125 364.082031 251.070312 361.089844 246.292969 C 359.628906 243.972656 358.902344 241.503906 358.902344 238.871094 C 358.902344 235.226562 360.230469 232.0625 362.894531 229.375 C 366.0625 226.171875 370.164062 224.570312 375.203125 224.570312 C 380.417969 224.570312 384.792969 226.296875 388.3125 229.75 L 384.246094 233.40625 C 381.667969 230.921875 378.667969 229.679688 375.242188 229.679688 C 372.523438 229.679688 370.148438 230.445312 368.132812 231.976562 C 365.859375 233.710938 364.71875 236.027344 364.71875 238.917969 C 364.71875 241.746094 365.835938 244.097656 368.078125 245.964844 C 370.242188 247.773438 372.75 248.601562 375.601562 248.4375 C 378.191406 248.296875 380.035156 247.75 381.144531 246.777344 C 381.730469 246.269531 382.542969 245.003906 383.589844 242.996094 L 373.109375 242.996094 L 373.109375 238.074219 L 383.753906 238.074219 Z M 412.914062 224.570312 C 417.03125 224.570312 420.609375 225.828125 423.652344 228.34375 C 426.988281 231.109375 428.652344 234.695312 428.652344 239.097656 C 428.652344 243.472656 426.988281 247.023438 423.652344 249.75 C 420.640625 252.21875 417.070312 253.453125 412.953125 253.453125 C 408.792969 253.453125 405.191406 252.21875 402.144531 249.75 C 398.742188 247.003906 397.046875 243.425781 397.046875 239.003906 C 397.046875 236.300781 397.765625 233.835938 399.210938 231.617188 C 400.597656 229.476562 402.511719 227.765625 404.964844 226.484375 C 407.410156 225.210938 410.066406 224.570312 412.914062 224.570312 Z M 412.867188 229.679688 C 410.144531 229.679688 407.847656 230.484375 405.964844 232.09375 C 403.894531 233.851562 402.863281 236.183594 402.863281 239.089844 C 402.863281 242.121094 404.082031 244.527344 406.511719 246.308594 C 408.402344 247.695312 410.550781 248.390625 412.960938 248.390625 C 415.585938 248.390625 417.859375 247.570312 419.765625 245.933594 C 421.84375 244.152344 422.882812 241.855469 422.882812 239.050781 C 422.882812 236.207031 421.828125 233.898438 419.726562 232.132812 C 417.796875 230.5 415.507812 229.679688 412.867188 229.679688 "/>
<path fill-rule="nonzero" fill="rgb(100%, 100%, 100%)" fill-opacity="1" d="M 258.535156 271.988281 L 258.203125 273.949219 C 259.242188 273.484375 260 273.191406 260.488281 273.054688 C 260.972656 272.925781 261.417969 272.921875 261.816406 273.050781 C 262.21875 273.183594 262.484375 273.390625 262.617188 273.679688 C 262.75 273.972656 262.761719 274.273438 262.660156 274.585938 C 262.539062 274.953125 262.332031 275.230469 262.03125 275.410156 C 261.726562 275.59375 261.441406 275.644531 261.175781 275.558594 C 261.015625 275.503906 260.875 275.414062 260.757812 275.296875 C 260.277344 274.761719 259.859375 274.4375 259.511719 274.324219 C 259.191406 274.21875 258.832031 274.316406 258.433594 274.625 C 258.035156 274.929688 257.703125 275.488281 257.4375 276.3125 L 255.664062 281.777344 C 255.558594 282.101562 255.5 282.347656 255.492188 282.515625 C 255.484375 282.683594 255.535156 282.828125 255.640625 282.960938 C 255.757812 283.085938 255.917969 283.207031 256.136719 283.308594 C 256.359375 283.417969 256.773438 283.589844 257.382812 283.839844 L 257.164062 284.511719 L 251.160156 282.566406 L 251.378906 281.890625 C 251.980469 282.027344 252.398438 282.101562 252.628906 282.117188 C 252.855469 282.125 253.03125 282.066406 253.140625 281.929688 C 253.257812 281.792969 253.382812 281.511719 253.519531 281.082031 L 255.910156 273.722656 C 256.042969 273.308594 256.085938 273.03125 256.039062 272.882812 C 255.996094 272.730469 255.824219 272.585938 255.527344 272.4375 L 254.699219 272.03125 L 254.886719 271.445312 Z M 268.835938 275.011719 C 269.769531 275.230469 270.558594 275.5625 271.199219 275.992188 C 271.84375 276.425781 272.332031 276.964844 272.675781 277.601562 C 273.015625 278.242188 273.207031 278.96875 273.253906 279.78125 C 273.308594 280.589844 273.214844 281.488281 272.984375 282.46875 C 272.683594 283.757812 272.214844 284.8125 271.589844 285.640625 C 270.960938 286.472656 270.175781 287.03125 269.230469 287.316406 C 268.285156 287.605469 267.1875 287.601562 265.945312 287.3125 C 264.113281 286.878906 262.851562 286.019531 262.15625 284.726562 C 261.464844 283.433594 261.34375 281.808594 261.808594 279.839844 C 262.269531 277.878906 263.09375 276.480469 264.285156 275.632812 C 265.476562 274.789062 266.996094 274.582031 268.835938 275.011719 Z M 264.234375 280.410156 C 263.972656 281.519531 263.867188 282.5 263.90625 283.351562 C 263.953125 284.203125 264.164062 284.898438 264.539062 285.433594 C 264.917969 285.960938 265.449219 286.3125 266.140625 286.472656 C 266.84375 286.640625 267.484375 286.570312 268.054688 286.261719 C 268.621094 285.957031 269.117188 285.429688 269.535156 284.6875 C 269.953125 283.945312 270.296875 283.015625 270.558594 281.898438 C 270.816406 280.800781 270.921875 279.824219 270.882812 278.964844 C 270.835938 278.109375 270.628906 277.417969 270.257812 276.890625 C 269.886719 276.363281 269.34375 276.015625 268.640625 275.851562 C 267.945312 275.6875 267.3125 275.761719 266.742188 276.070312 C 266.167969 276.378906 265.671875 276.902344 265.25 277.640625 C 264.832031 278.386719 264.492188 279.308594 264.234375 280.410156 Z M 282.394531 278.910156 L 279.34375 278.410156 L 278.109375 285.925781 C 277.972656 286.773438 278.015625 287.410156 278.246094 287.847656 C 278.472656 288.277344 278.816406 288.535156 279.277344 288.609375 C 279.90625 288.714844 280.480469 288.699219 281 288.566406 L 281.097656 289.105469 C 279.867188 289.636719 278.800781 289.828125 277.902344 289.679688 C 277.265625 289.574219 276.695312 289.285156 276.207031 288.8125 C 275.714844 288.335938 275.558594 287.558594 275.734375 286.480469 L 277.121094 278.042969 L 275.410156 277.761719 L 275.566406 276.792969 L 277.375 277.089844 L 279.324219 274.265625 L 280.003906 274.378906 L 279.503906 277.4375 L 282.554688 277.9375 Z M 283.347656 278.460938 L 287.152344 278.304688 L 287.308594 278.46875 L 286.101562 288.453125 C 286.0625 288.78125 286.046875 289.027344 286.058594 289.199219 C 286.070312 289.371094 286.121094 289.503906 286.222656 289.609375 C 286.320312 289.707031 286.464844 289.785156 286.652344 289.839844 C 286.84375 289.898438 287.191406 289.976562 287.707031 290.089844 L 287.621094 290.792969 L 281.820312 290.089844 L 281.90625 289.386719 C 282.433594 289.40625 282.792969 289.417969 282.992188 289.410156 C 283.1875 289.402344 283.347656 289.359375 283.46875 289.277344 C 283.59375 289.203125 283.675781 289.09375 283.722656 288.945312 C 283.769531 288.800781 283.8125 288.546875 283.855469 288.183594 L 284.785156 280.5 C 284.839844 280.070312 284.828125 279.785156 284.757812 279.648438 C 284.679688 279.507812 284.484375 279.398438 284.164062 279.3125 L 283.273438 279.070312 Z M 286.804688 273.609375 L 286.78125 273.605469 C 287.171875 273.65625 287.472656 273.816406 287.671875 274.101562 C 287.878906 274.382812 287.953125 274.71875 287.90625 275.109375 C 287.859375 275.484375 287.707031 275.777344 287.453125 275.992188 C 287.195312 276.207031 286.871094 276.292969 286.484375 276.246094 C 286.105469 276.199219 285.808594 276.039062 285.601562 275.765625 C 285.394531 275.5 285.316406 275.175781 285.359375 274.800781 C 285.40625 274.40625 285.566406 274.09375 285.832031 273.871094 C 286.097656 273.652344 286.421875 273.5625 286.804688 273.609375 Z M 296.984375 282.414062 L 296.28125 282.386719 C 296.226562 281.558594 295.984375 280.867188 295.546875 280.316406 C 295.117188 279.761719 294.5 279.472656 293.707031 279.445312 C 293.085938 279.421875 292.570312 279.578125 292.148438 279.917969 C 291.730469 280.253906 291.507812 280.730469 291.476562 281.347656 C 291.453125 281.945312 291.667969 282.402344 292.117188 282.726562 C 292.570312 283.046875 293.179688 283.355469 293.960938 283.660156 C 295.242188 284.105469 296.171875 284.628906 296.757812 285.238281 C 297.339844 285.84375 297.613281 286.671875 297.574219 287.71875 C 297.546875 288.417969 297.351562 289.042969 296.972656 289.578125 C 296.597656 290.117188 296.066406 290.535156 295.382812 290.820312 C 294.695312 291.105469 293.886719 291.230469 292.957031 291.199219 C 292.207031 291.171875 291.511719 291.046875 290.859375 290.820312 C 290.210938 290.597656 289.679688 290.28125 289.269531 289.878906 L 289.136719 286.652344 L 289.839844 286.675781 C 290.300781 289.058594 291.421875 290.28125 293.210938 290.347656 C 293.640625 290.363281 294.027344 290.289062 294.367188 290.136719 C 294.707031 289.980469 294.980469 289.75 295.183594 289.453125 C 295.386719 289.152344 295.496094 288.800781 295.511719 288.390625 C 295.539062 287.652344 295.316406 287.089844 294.84375 286.695312 C 294.367188 286.300781 293.761719 285.976562 293.019531 285.714844 C 291.878906 285.3125 291.003906 284.828125 290.398438 284.261719 C 289.792969 283.695312 289.507812 282.949219 289.53125 282.019531 C 289.582031 280.878906 290.015625 280.011719 290.824219 279.417969 C 291.632812 278.820312 292.699219 278.546875 294.019531 278.59375 C 294.601562 278.617188 295.167969 278.707031 295.710938 278.863281 C 296.25 279.019531 296.710938 279.242188 297.089844 279.542969 Z M 307.003906 282.3125 L 306.300781 282.332031 C 306.191406 281.507812 305.902344 280.835938 305.433594 280.3125 C 304.964844 279.789062 304.332031 279.542969 303.535156 279.566406 C 302.917969 279.582031 302.410156 279.773438 302.011719 280.136719 C 301.621094 280.5 301.425781 280.992188 301.4375 281.609375 C 301.453125 282.207031 301.699219 282.652344 302.167969 282.945312 C 302.636719 283.234375 303.269531 283.503906 304.070312 283.753906 C 305.375 284.113281 306.339844 284.578125 306.960938 285.148438 C 307.582031 285.714844 307.910156 286.519531 307.941406 287.570312 C 307.960938 288.269531 307.800781 288.90625 307.460938 289.464844 C 307.125 290.027344 306.621094 290.476562 305.953125 290.804688 C 305.289062 291.136719 304.492188 291.316406 303.558594 291.34375 C 302.808594 291.363281 302.109375 291.285156 301.441406 291.105469 C 300.78125 290.921875 300.230469 290.644531 299.792969 290.265625 L 299.453125 287.054688 L 300.15625 287.035156 C 300.769531 289.382812 301.96875 290.527344 303.757812 290.476562 C 304.1875 290.464844 304.566406 290.367188 304.898438 290.1875 C 305.226562 290.011719 305.484375 289.765625 305.667969 289.453125 C 305.851562 289.140625 305.9375 288.78125 305.925781 288.371094 C 305.902344 287.636719 305.644531 287.089844 305.144531 286.726562 C 304.648438 286.363281 304.019531 286.078125 303.261719 285.867188 C 302.097656 285.539062 301.195312 285.117188 300.550781 284.589844 C 299.914062 284.0625 299.574219 283.339844 299.539062 282.410156 C 299.515625 281.265625 299.890625 280.371094 300.660156 279.726562 C 301.425781 279.078125 302.472656 278.734375 303.792969 278.699219 C 304.378906 278.679688 304.945312 278.734375 305.496094 278.851562 C 306.046875 278.972656 306.523438 279.167969 306.921875 279.441406 Z M 318.554688 283.113281 L 311.695312 283.882812 C 311.804688 284.863281 311.996094 285.746094 312.273438 286.523438 C 312.550781 287.300781 312.976562 287.921875 313.554688 288.390625 C 314.136719 288.855469 314.882812 289.039062 315.804688 288.9375 C 316.667969 288.839844 317.335938 288.539062 317.816406 288.027344 C 318.296875 287.515625 318.683594 286.832031 318.96875 285.972656 L 319.738281 286.285156 C 319.59375 286.976562 319.355469 287.605469 319.011719 288.167969 C 318.667969 288.730469 318.210938 289.195312 317.625 289.558594 C 317.042969 289.921875 316.324219 290.15625 315.472656 290.261719 C 311.804688 290.671875 309.742188 288.8125 309.277344 284.691406 C 309.140625 283.457031 309.21875 282.339844 309.511719 281.332031 C 309.808594 280.324219 310.339844 279.5 311.105469 278.867188 C 311.863281 278.230469 312.847656 277.84375 314.039062 277.707031 C 315.355469 277.5625 316.40625 277.726562 317.1875 278.210938 C 317.96875 278.695312 318.511719 279.289062 318.824219 279.992188 C 319.132812 280.691406 319.328125 281.386719 319.40625 282.078125 C 319.445312 282.449219 319.390625 282.707031 319.234375 282.847656 C 319.078125 282.992188 318.851562 283.078125 318.554688 283.113281 Z M 311.613281 282.953125 L 316.113281 282.445312 C 316.429688 282.410156 316.636719 282.316406 316.738281 282.171875 C 316.832031 282.023438 316.867188 281.824219 316.839844 281.570312 C 316.75 280.78125 316.496094 280.058594 316.078125 279.402344 C 315.65625 278.742188 314.964844 278.46875 313.996094 278.578125 C 313.253906 278.664062 312.695312 278.972656 312.328125 279.507812 C 311.960938 280.042969 311.734375 280.625 311.652344 281.257812 C 311.570312 281.886719 311.558594 282.453125 311.613281 282.953125 Z M 323.058594 276.304688 L 323.714844 278.1875 C 324.402344 277.277344 324.921875 276.652344 325.285156 276.300781 C 325.644531 275.949219 326.035156 275.734375 326.449219 275.65625 C 326.863281 275.574219 327.195312 275.632812 327.453125 275.820312 C 327.707031 276.011719 327.863281 276.269531 327.925781 276.59375 C 328 276.96875 327.949219 277.3125 327.773438 277.617188 C 327.597656 277.925781 327.371094 278.105469 327.097656 278.15625 C 326.925781 278.191406 326.761719 278.179688 326.601562 278.132812 C 325.921875 277.894531 325.402344 277.8125 325.042969 277.882812 C 324.710938 277.945312 324.445312 278.203125 324.242188 278.664062 C 324.042969 279.125 324.023438 279.773438 324.1875 280.625 L 325.269531 286.269531 C 325.335938 286.601562 325.402344 286.84375 325.476562 286.996094 C 325.550781 287.148438 325.664062 287.25 325.824219 287.3125 C 325.984375 287.371094 326.183594 287.394531 326.425781 287.378906 C 326.671875 287.367188 327.117188 287.320312 327.769531 287.242188 L 327.902344 287.9375 L 321.703125 289.132812 L 321.570312 288.433594 C 322.164062 288.261719 322.566406 288.128906 322.773438 288.027344 C 322.980469 287.925781 323.101562 287.789062 323.132812 287.617188 C 323.171875 287.445312 323.144531 287.136719 323.058594 286.691406 L 321.597656 279.09375 C 321.515625 278.667969 321.417969 278.402344 321.304688 278.296875 C 321.195312 278.183594 320.972656 278.136719 320.640625 278.152344 L 319.71875 278.195312 L 319.601562 277.59375 Z M 328.152344 275.78125 L 331.640625 274.25 L 331.847656 274.347656 L 334.363281 284.082031 C 334.445312 284.40625 334.523438 284.640625 334.59375 284.792969 C 334.667969 284.949219 334.765625 285.054688 334.894531 285.113281 C 335.023438 285.167969 335.183594 285.191406 335.382812 285.175781 C 335.578125 285.15625 335.933594 285.101562 336.453125 285.019531 L 336.628906 285.707031 L 330.972656 287.167969 L 330.796875 286.480469 C 331.292969 286.308594 331.632812 286.1875 331.816406 286.109375 C 331.992188 286.027344 332.128906 285.929688 332.210938 285.8125 C 332.300781 285.695312 332.335938 285.5625 332.328125 285.410156 C 332.316406 285.257812 332.265625 285.007812 332.171875 284.648438 L 330.238281 277.15625 C 330.128906 276.738281 330.015625 276.476562 329.898438 276.375 C 329.777344 276.273438 329.554688 276.242188 329.226562 276.277344 L 328.308594 276.378906 Z M 329.605469 270.007812 L 329.582031 270.011719 C 329.964844 269.914062 330.300781 269.957031 330.59375 270.148438 C 330.886719 270.335938 331.078125 270.617188 331.175781 271 C 331.269531 271.363281 331.238281 271.695312 331.078125 271.984375 C 330.914062 272.28125 330.644531 272.480469 330.265625 272.574219 C 329.894531 272.671875 329.5625 272.628906 329.269531 272.453125 C 328.980469 272.277344 328.789062 272.007812 328.691406 271.640625 C 328.59375 271.257812 328.628906 270.910156 328.792969 270.605469 C 328.960938 270.300781 329.230469 270.101562 329.605469 270.007812 Z M 344.941406 276.371094 L 338.414062 278.617188 C 338.734375 279.550781 339.113281 280.367188 339.550781 281.066406 C 339.992188 281.765625 340.546875 282.28125 341.210938 282.609375 C 341.878906 282.9375 342.648438 282.953125 343.523438 282.652344 C 344.34375 282.371094 344.933594 281.929688 345.289062 281.328125 C 345.648438 280.722656 345.878906 279.972656 345.96875 279.070312 L 346.785156 279.210938 C 346.796875 279.917969 346.699219 280.582031 346.488281 281.203125 C 346.273438 281.828125 345.929688 282.382812 345.4375 282.863281 C 344.945312 283.347656 344.296875 283.730469 343.488281 284.019531 C 340 285.21875 337.582031 283.855469 336.230469 279.929688 C 335.824219 278.757812 335.660156 277.648438 335.726562 276.601562 C 335.796875 275.550781 336.136719 274.632812 336.742188 273.847656 C 337.347656 273.0625 338.222656 272.46875 339.355469 272.078125 C 340.609375 271.648438 341.671875 271.582031 342.535156 271.886719 C 343.40625 272.183594 344.066406 272.644531 344.523438 273.265625 C 344.976562 273.878906 345.316406 274.515625 345.542969 275.175781 C 345.664062 275.527344 345.667969 275.789062 345.546875 275.960938 C 345.425781 276.136719 345.222656 276.273438 344.941406 276.371094 Z M 338.132812 277.726562 L 342.414062 276.253906 C 342.714844 276.148438 342.894531 276.011719 342.960938 275.847656 C 343.023438 275.683594 343.011719 275.476562 342.929688 275.238281 C 342.671875 274.488281 342.265625 273.835938 341.714844 273.285156 C 341.160156 272.738281 340.425781 272.621094 339.503906 272.9375 C 338.796875 273.183594 338.320312 273.605469 338.078125 274.207031 C 337.835938 274.8125 337.742188 275.429688 337.800781 276.0625 C 337.859375 276.691406 337.96875 277.25 338.132812 277.726562 "/>
</svg>
